{"glyphs":{"0":{"ha":566,"x_min":51,"x_max":514,"o":"m 51 669 l 103 669 l 103 720 l 154 720 l 154 772 l 412 772 l 412 720 l 463 720 l 463 669 l 514 669 l 514 103 l 463 103 l 463 51 l 412 51 l 412 0 l 154 0 l 154 51 l 103 51 l 103 103 l 51 103 l 51 669 m 309 206 l 360 206 l 360 566 l 309 566 l 309 617 l 257 617 l 257 566 l 206 566 l 206 206 l 257 206 l 257 154 l 309 154 l 309 206 z "},"1":{"ha":360,"x_min":51,"x_max":309,"o":"m 51 772 l 309 772 l 309 0 l 154 0 l 154 617 l 51 617 l 51 772 z "},"2":{"ha":617,"x_min":51,"x_max":566,"o":"m 51 154 l 103 154 l 103 206 l 154 206 l 154 257 l 206 257 l 206 309 l 257 309 l 257 360 l 309 360 l 309 412 l 360 412 l 360 463 l 412 463 l 412 566 l 360 566 l 360 617 l 257 617 l 257 566 l 206 566 l 206 514 l 51 514 l 51 669 l 103 669 l 103 720 l 154 720 l 154 772 l 463 772 l 463 720 l 514 720 l 514 669 l 566 669 l 566 412 l 514 412 l 514 360 l 463 360 l 463 309 l 412 309 l 412 257 l 360 257 l 360 206 l 309 206 l 309 154 l 566 154 l 566 0 l 51 0 l 51 154 z "},"3":{"ha":617,"x_min":51,"x_max":566,"o":"m 51 257 l 206 257 l 206 206 l 257 206 l 257 154 l 360 154 l 360 206 l 412 206 l 412 309 l 360 309 l 360 360 l 206 360 l 206 463 l 360 463 l 360 514 l 412 514 l 412 566 l 360 566 l 360 617 l 257 617 l 257 566 l 206 566 l 206 514 l 51 514 l 51 669 l 103 669 l 103 720 l 154 720 l 154 772 l 463 772 l 463 720 l 514 720 l 514 669 l 566 669 l 566 463 l 514 463 l 514 360 l 566 360 l 566 103 l 514 103 l 514 51 l 463 51 l 463 0 l 154 0 l 154 51 l 103 51 l 103 103 l 51 103 l 51 257 z "},"4":{"ha":566,"x_min":51,"x_max":514,"o":"m 360 514 l 309 514 l 309 463 l 257 463 l 257 412 l 206 412 l 206 309 l 360 309 l 360 514 m 51 463 l 103 463 l 103 514 l 154 514 l 154 566 l 206 566 l 206 617 l 257 617 l 257 669 l 309 669 l 309 720 l 360 720 l 360 772 l 514 772 l 514 0 l 360 0 l 360 154 l 51 154 l 51 463 z "},"5":{"ha":566,"x_min":51,"x_max":514,"o":"m 51 257 l 206 257 l 206 206 l 257 206 l 257 154 l 309 154 l 309 206 l 360 206 l 360 309 l 309 309 l 309 360 l 51 360 l 51 772 l 514 772 l 514 617 l 206 617 l 206 514 l 412 514 l 412 463 l 463 463 l 463 412 l 514 412 l 514 103 l 463 103 l 463 51 l 412 51 l 412 0 l 154 0 l 154 51 l 103 51 l 103 103 l 51 103 l 51 257 z "},"6":{"ha":617,"x_min":51,"x_max":566,"o":"m 206 463 l 257 463 l 257 514 l 412 514 l 412 463 l 514 463 l 514 412 l 566 412 l 566 103 l 514 103 l 514 51 l 463 51 l 463 0 l 154 0 l 154 51 l 103 51 l 103 103 l 51 103 l 51 669 l 103 669 l 103 720 l 154 720 l 154 772 l 463 772 l 463 720 l 514 720 l 514 669 l 566 669 l 566 514 l 412 514 l 412 566 l 360 566 l 360 617 l 257 617 l 257 566 l 206 566 l 206 463 m 257 154 l 360 154 l 360 206 l 412 206 l 412 309 l 360 309 l 360 360 l 257 360 l 257 309 l 206 309 l 206 206 l 257 206 l 257 154 z "},"7":{"ha":566,"x_min":51,"x_max":514,"o":"m 206 309 l 257 309 l 257 412 l 309 412 l 309 514 l 360 514 l 360 617 l 51 617 l 51 772 l 514 772 l 514 412 l 463 412 l 463 309 l 412 309 l 412 206 l 360 206 l 360 0 l 206 0 l 206 309 z "},"8":{"ha":617,"x_min":51,"x_max":566,"o":"m 360 206 l 412 206 l 412 309 l 360 309 l 360 360 l 257 360 l 257 309 l 206 309 l 206 206 l 257 206 l 257 154 l 360 154 l 360 206 m 257 463 l 360 463 l 360 514 l 412 514 l 412 566 l 360 566 l 360 617 l 257 617 l 257 566 l 206 566 l 206 514 l 257 514 l 257 463 m 103 103 l 51 103 l 51 360 l 103 360 l 103 463 l 51 463 l 51 669 l 103 669 l 103 720 l 154 720 l 154 772 l 463 772 l 463 720 l 514 720 l 514 669 l 566 669 l 566 463 l 514 463 l 514 360 l 566 360 l 566 103 l 514 103 l 514 51 l 463 51 l 463 0 l 154 0 l 154 51 l 103 51 l 103 103 z "},"9":{"ha":617,"x_min":51,"x_max":566,"o":"m 257 412 l 360 412 l 360 463 l 412 463 l 412 566 l 360 566 l 360 617 l 257 617 l 257 566 l 206 566 l 206 463 l 257 463 l 257 412 m 51 257 l 206 257 l 206 206 l 257 206 l 257 154 l 360 154 l 360 206 l 412 206 l 412 309 l 360 309 l 360 257 l 206 257 l 206 309 l 103 309 l 103 360 l 51 360 l 51 669 l 103 669 l 103 720 l 154 720 l 154 772 l 463 772 l 463 720 l 514 720 l 514 669 l 566 669 l 566 103 l 514 103 l 514 51 l 463 51 l 463 0 l 154 0 l 154 51 l 103 51 l 103 103 l 51 103 l 51 257 z "},"A":{"ha":617,"x_min":51,"x_max":566,"o":"m 412 206 l 206 206 l 206 0 l 51 0 l 51 566 l 103 566 l 103 617 l 154 617 l 154 669 l 206 669 l 206 720 l 257 720 l 257 772 l 360 772 l 360 720 l 412 720 l 412 669 l 463 669 l 463 617 l 514 617 l 514 566 l 566 566 l 566 0 l 412 0 l 412 206 m 206 360 l 412 360 l 412 514 l 360 514 l 360 566 l 257 566 l 257 514 l 206 514 l 206 360 z "},"Á":{"ha":617,"x_min":51,"x_max":566,"o":"m 412 1029 l 412 926 l 360 926 l 360 874 l 309 874 l 309 823 l 206 823 l 206 926 l 257 926 l 257 977 l 309 977 l 309 1029 l 412 1029 m 206 360 l 412 360 l 412 514 l 360 514 l 360 566 l 257 566 l 257 514 l 206 514 l 206 360 m 412 206 l 206 206 l 206 0 l 51 0 l 51 566 l 103 566 l 103 617 l 154 617 l 154 669 l 206 669 l 206 720 l 257 720 l 257 772 l 360 772 l 360 720 l 412 720 l 412 669 l 463 669 l 463 617 l 514 617 l 514 566 l 566 566 l 566 0 l 412 0 l 412 206 z "},"Ă":{"ha":617,"x_min":51,"x_max":566,"o":"m 360 926 l 360 1029 l 463 1029 l 463 874 l 412 874 l 412 823 l 206 823 l 206 874 l 154 874 l 154 1029 l 257 1029 l 257 926 l 360 926 m 206 360 l 412 360 l 412 514 l 360 514 l 360 566 l 257 566 l 257 514 l 206 514 l 206 360 m 412 206 l 206 206 l 206 0 l 51 0 l 51 566 l 103 566 l 103 617 l 154 617 l 154 669 l 206 669 l 206 720 l 257 720 l 257 772 l 360 772 l 360 720 l 412 720 l 412 669 l 463 669 l 463 617 l 514 617 l 514 566 l 566 566 l 566 0 l 412 0 l 412 206 z "},"Â":{"ha":617,"x_min":51,"x_max":566,"o":"m 154 926 l 206 926 l 206 977 l 257 977 l 257 1029 l 360 1029 l 360 977 l 412 977 l 412 926 l 463 926 l 463 823 l 360 823 l 360 874 l 257 874 l 257 823 l 154 823 l 154 926 m 206 360 l 412 360 l 412 514 l 360 514 l 360 566 l 257 566 l 257 514 l 206 514 l 206 360 m 412 206 l 206 206 l 206 0 l 51 0 l 51 566 l 103 566 l 103 617 l 154 617 l 154 669 l 206 669 l 206 720 l 257 720 l 257 772 l 360 772 l 360 720 l 412 720 l 412 669 l 463 669 l 463 617 l 514 617 l 514 566 l 566 566 l 566 0 l 412 0 l 412 206 z "},"Ä":{"ha":617,"x_min":51,"x_max":566,"o":"m 360 1029 l 514 1029 l 514 874 l 360 874 l 360 1029 m 103 1029 l 257 1029 l 257 874 l 103 874 l 103 1029 m 206 360 l 412 360 l 412 514 l 360 514 l 360 566 l 257 566 l 257 514 l 206 514 l 206 360 m 412 206 l 206 206 l 206 0 l 51 0 l 51 566 l 103 566 l 103 617 l 154 617 l 154 669 l 206 669 l 206 720 l 257 720 l 257 772 l 360 772 l 360 720 l 412 720 l 412 669 l 463 669 l 463 617 l 514 617 l 514 566 l 566 566 l 566 0 l 412 0 l 412 206 z "},"À":{"ha":617,"x_min":51,"x_max":566,"o":"m 360 926 l 412 926 l 412 823 l 309 823 l 309 874 l 257 874 l 257 926 l 206 926 l 206 1029 l 309 1029 l 309 977 l 360 977 l 360 926 m 206 360 l 412 360 l 412 514 l 360 514 l 360 566 l 257 566 l 257 514 l 206 514 l 206 360 m 412 206 l 206 206 l 206 0 l 51 0 l 51 566 l 103 566 l 103 617 l 154 617 l 154 669 l 206 669 l 206 720 l 257 720 l 257 772 l 360 772 l 360 720 l 412 720 l 412 669 l 463 669 l 463 617 l 514 617 l 514 566 l 566 566 l 566 0 l 412 0 l 412 206 z "},"Å":{"ha":617,"x_min":51,"x_max":566,"o":"m 360 874 l 360 977 l 257 977 l 257 874 l 360 874 m 206 360 l 412 360 l 412 514 l 360 514 l 360 566 l 257 566 l 257 514 l 206 514 l 206 360 m 206 874 l 154 874 l 154 977 l 206 977 l 206 1029 l 257 1029 l 257 1080 l 360 1080 l 360 1029 l 412 1029 l 412 977 l 463 977 l 463 874 l 412 874 l 412 823 l 206 823 l 206 874 m 412 206 l 206 206 l 206 0 l 51 0 l 51 566 l 103 566 l 103 617 l 154 617 l 154 669 l 206 669 l 206 720 l 257 720 l 257 772 l 360 772 l 360 720 l 412 720 l 412 669 l 463 669 l 463 617 l 514 617 l 514 566 l 566 566 l 566 0 l 412 0 l 412 206 z "},"Ã":{"ha":617,"x_min":51,"x_max":566,"o":"m 360 874 l 206 874 l 206 823 l 154 823 l 154 977 l 206 977 l 206 1029 l 257 1029 l 257 977 l 412 977 l 412 1029 l 463 1029 l 463 874 l 412 874 l 412 823 l 360 823 l 360 874 m 206 360 l 412 360 l 412 514 l 360 514 l 360 566 l 257 566 l 257 514 l 206 514 l 206 360 m 412 206 l 206 206 l 206 0 l 51 0 l 51 566 l 103 566 l 103 617 l 154 617 l 154 669 l 206 669 l 206 720 l 257 720 l 257 772 l 360 772 l 360 720 l 412 720 l 412 669 l 463 669 l 463 617 l 514 617 l 514 566 l 566 566 l 566 0 l 412 0 l 412 206 z "},"Æ":{"ha":874,"x_min":51,"x_max":823,"o":"m 206 360 l 412 360 l 412 514 l 360 514 l 360 566 l 257 566 l 257 514 l 206 514 l 206 360 m 412 206 l 206 206 l 206 0 l 51 0 l 51 566 l 103 566 l 103 617 l 154 617 l 154 669 l 206 669 l 206 720 l 257 720 l 257 772 l 360 772 l 360 720 l 412 720 l 412 669 l 463 669 l 463 772 l 823 772 l 823 617 l 566 617 l 566 463 l 772 463 l 772 309 l 566 309 l 566 154 l 823 154 l 823 0 l 412 0 l 412 206 z "},"B":{"ha":617,"x_min":51,"x_max":566,"o":"m 360 514 l 412 514 l 412 566 l 360 566 l 360 617 l 206 617 l 206 463 l 360 463 l 360 514 m 206 154 l 360 154 l 360 206 l 412 206 l 412 257 l 360 257 l 360 309 l 206 309 l 206 154 m 514 360 l 566 360 l 566 103 l 514 103 l 514 51 l 463 51 l 463 0 l 51 0 l 51 772 l 463 772 l 463 720 l 514 720 l 514 669 l 566 669 l 566 412 l 514 412 l 514 360 z "},"C":{"ha":617,"x_min":51,"x_max":566,"o":"m 360 206 l 412 206 l 412 257 l 566 257 l 566 103 l 514 103 l 514 51 l 463 51 l 463 0 l 154 0 l 154 51 l 103 51 l 103 103 l 51 103 l 51 669 l 103 669 l 103 720 l 154 720 l 154 772 l 463 772 l 463 720 l 514 720 l 514 669 l 566 669 l 566 514 l 412 514 l 412 566 l 360 566 l 360 617 l 257 617 l 257 566 l 206 566 l 206 206 l 257 206 l 257 154 l 360 154 l 360 206 z "},"Ç":{"ha":617,"x_min":51,"x_max":566,"o":"m 257 0 l 154 0 l 154 51 l 103 51 l 103 103 l 51 103 l 51 669 l 103 669 l 103 720 l 154 720 l 154 772 l 463 772 l 463 720 l 514 720 l 514 669 l 566 669 l 566 514 l 412 514 l 412 566 l 360 566 l 360 617 l 257 617 l 257 566 l 206 566 l 206 206 l 257 206 l 257 154 l 360 154 l 360 206 l 412 206 l 412 257 l 566 257 l 566 103 l 514 103 l 514 51 l 463 51 l 463 0 l 360 0 l 360 -51 l 412 -51 l 412 -103 l 463 -103 l 463 -206 l 412 -206 l 412 -257 l 206 -257 l 206 -154 l 360 -154 l 360 -103 l 257 -103 l 257 0 z "},"D":{"ha":617,"x_min":51,"x_max":566,"o":"m 51 772 l 463 772 l 463 720 l 514 720 l 514 669 l 566 669 l 566 103 l 514 103 l 514 51 l 463 51 l 463 0 l 51 0 l 51 772 m 360 206 l 412 206 l 412 566 l 360 566 l 360 617 l 206 617 l 206 154 l 360 154 l 360 206 z "},"Ð":{"ha":669,"x_min":0,"x_max":617,"o":"m 412 206 l 463 206 l 463 566 l 412 566 l 412 617 l 257 617 l 257 463 l 412 463 l 412 360 l 257 360 l 257 154 l 412 154 l 412 206 m 0 463 l 103 463 l 103 772 l 514 772 l 514 720 l 566 720 l 566 669 l 617 669 l 617 103 l 566 103 l 566 51 l 514 51 l 514 0 l 103 0 l 103 360 l 0 360 l 0 463 z "},"E":{"ha":566,"x_min":51,"x_max":514,"o":"m 206 154 l 514 154 l 514 0 l 51 0 l 51 772 l 514 772 l 514 617 l 206 617 l 206 463 l 463 463 l 463 309 l 206 309 l 206 154 z "},"É":{"ha":566,"x_min":51,"x_max":514,"o":"m 412 1029 l 412 926 l 360 926 l 360 874 l 309 874 l 309 823 l 206 823 l 206 926 l 257 926 l 257 977 l 309 977 l 309 1029 l 412 1029 m 206 154 l 514 154 l 514 0 l 51 0 l 51 772 l 514 772 l 514 617 l 206 617 l 206 463 l 463 463 l 463 309 l 206 309 l 206 154 z "},"Ê":{"ha":566,"x_min":51,"x_max":514,"o":"m 154 926 l 206 926 l 206 977 l 257 977 l 257 1029 l 360 1029 l 360 977 l 412 977 l 412 926 l 463 926 l 463 823 l 360 823 l 360 874 l 257 874 l 257 823 l 154 823 l 154 926 m 206 154 l 514 154 l 514 0 l 51 0 l 51 772 l 514 772 l 514 617 l 206 617 l 206 463 l 463 463 l 463 309 l 206 309 l 206 154 z "},"Ë":{"ha":566,"x_min":51,"x_max":514,"o":"m 360 1029 l 514 1029 l 514 874 l 360 874 l 360 1029 m 103 1029 l 257 1029 l 257 874 l 103 874 l 103 1029 m 206 154 l 514 154 l 514 0 l 51 0 l 51 772 l 514 772 l 514 617 l 206 617 l 206 463 l 463 463 l 463 309 l 206 309 l 206 154 z "},"È":{"ha":566,"x_min":51,"x_max":514,"o":"m 360 926 l 412 926 l 412 823 l 309 823 l 309 874 l 257 874 l 257 926 l 206 926 l 206 1029 l 309 1029 l 309 977 l 360 977 l 360 926 m 206 154 l 514 154 l 514 0 l 51 0 l 51 772 l 514 772 l 514 617 l 206 617 l 206 463 l 463 463 l 463 309 l 206 309 l 206 154 z "},"F":{"ha":514,"x_min":51,"x_max":514,"o":"m 206 463 l 463 463 l 463 309 l 206 309 l 206 0 l 51 0 l 51 772 l 514 772 l 514 617 l 206 617 l 206 463 z "},"G":{"ha":617,"x_min":51,"x_max":566,"o":"m 360 206 l 412 206 l 412 309 l 309 309 l 309 463 l 566 463 l 566 103 l 514 103 l 514 51 l 463 51 l 463 0 l 154 0 l 154 51 l 103 51 l 103 103 l 51 103 l 51 669 l 103 669 l 103 720 l 154 720 l 154 772 l 463 772 l 463 720 l 514 720 l 514 669 l 566 669 l 566 566 l 412 566 l 412 617 l 257 617 l 257 566 l 206 566 l 206 206 l 257 206 l 257 154 l 360 154 l 360 206 z "},"H":{"ha":617,"x_min":51,"x_max":566,"o":"m 412 309 l 206 309 l 206 0 l 51 0 l 51 772 l 206 772 l 206 463 l 412 463 l 412 772 l 566 772 l 566 0 l 412 0 l 412 309 z "},"I":{"ha":257,"x_min":51,"x_max":206,"o":"m 51 772 l 206 772 l 206 0 l 51 0 l 51 772 z "},"Í":{"ha":257,"x_min":51,"x_max":257,"o":"m 257 1029 l 257 926 l 206 926 l 206 874 l 154 874 l 154 823 l 51 823 l 51 926 l 103 926 l 103 977 l 154 977 l 154 1029 l 257 1029 m 51 772 l 206 772 l 206 0 l 51 0 l 51 772 z "},"Î":{"ha":257,"x_min":-51,"x_max":309,"o":"m -51 977 l 0 977 l 0 1029 l 51 1029 l 51 1080 l 206 1080 l 206 1029 l 257 1029 l 257 977 l 309 977 l 309 874 l 206 874 l 206 926 l 154 926 l 154 977 l 103 977 l 103 926 l 51 926 l 51 874 l -51 874 l -51 977 m 51 772 l 206 772 l 206 0 l 51 0 l 51 772 z "},"Ï":{"ha":257,"x_min":-51,"x_max":309,"o":"m 154 977 l 309 977 l 309 823 l 154 823 l 154 977 m -51 977 l 103 977 l 103 823 l -51 823 l -51 977 m 51 772 l 206 772 l 206 0 l 51 0 l 51 772 z "},"Ì":{"ha":257,"x_min":51,"x_max":257,"o":"m 206 926 l 257 926 l 257 823 l 154 823 l 154 874 l 103 874 l 103 926 l 51 926 l 51 1029 l 154 1029 l 154 977 l 206 977 l 206 926 m 51 772 l 206 772 l 206 0 l 51 0 l 51 772 z "},"J":{"ha":566,"x_min":51,"x_max":514,"o":"m 51 257 l 206 257 l 206 206 l 257 206 l 257 154 l 309 154 l 309 206 l 360 206 l 360 772 l 514 772 l 514 103 l 463 103 l 463 51 l 412 51 l 412 0 l 154 0 l 154 51 l 103 51 l 103 103 l 51 103 l 51 257 z "},"K":{"ha":566,"x_min":51,"x_max":514,"o":"m 309 514 l 360 514 l 360 772 l 514 772 l 514 463 l 463 463 l 463 412 l 412 412 l 412 360 l 463 360 l 463 309 l 514 309 l 514 0 l 360 0 l 360 257 l 309 257 l 309 309 l 206 309 l 206 0 l 51 0 l 51 772 l 206 772 l 206 463 l 309 463 l 309 514 z "},"L":{"ha":514,"x_min":51,"x_max":463,"o":"m 206 154 l 463 154 l 463 0 l 51 0 l 51 772 l 206 772 l 206 154 z "},"M":{"ha":874,"x_min":51,"x_max":823,"o":"m 360 360 l 309 360 l 309 412 l 257 412 l 257 463 l 206 463 l 206 0 l 51 0 l 51 772 l 206 772 l 206 720 l 257 720 l 257 669 l 309 669 l 309 617 l 360 617 l 360 566 l 412 566 l 412 514 l 463 514 l 463 566 l 514 566 l 514 617 l 566 617 l 566 669 l 617 669 l 617 720 l 669 720 l 669 772 l 823 772 l 823 0 l 669 0 l 669 463 l 617 463 l 617 412 l 566 412 l 566 360 l 514 360 l 514 309 l 463 309 l 463 257 l 412 257 l 412 309 l 360 309 l 360 360 z "},"N":{"ha":669,"x_min":51,"x_max":617,"o":"m 360 206 l 309 206 l 309 309 l 257 309 l 257 412 l 206 412 l 206 0 l 51 0 l 51 772 l 257 772 l 257 669 l 309 669 l 309 566 l 360 566 l 360 463 l 412 463 l 412 360 l 463 360 l 463 772 l 617 772 l 617 0 l 412 0 l 412 103 l 360 103 l 360 206 z "},"Ñ":{"ha":669,"x_min":51,"x_max":617,"o":"m 412 874 l 257 874 l 257 823 l 206 823 l 206 977 l 257 977 l 257 1029 l 309 1029 l 309 977 l 463 977 l 463 1029 l 514 1029 l 514 874 l 463 874 l 463 823 l 412 823 l 412 874 m 360 206 l 309 206 l 309 309 l 257 309 l 257 412 l 206 412 l 206 0 l 51 0 l 51 772 l 257 772 l 257 669 l 309 669 l 309 566 l 360 566 l 360 463 l 412 463 l 412 360 l 463 360 l 463 772 l 617 772 l 617 0 l 412 0 l 412 103 l 360 103 l 360 206 z "},"O":{"ha":617,"x_min":51,"x_max":566,"o":"m 51 669 l 103 669 l 103 720 l 154 720 l 154 772 l 463 772 l 463 720 l 514 720 l 514 669 l 566 669 l 566 103 l 514 103 l 514 51 l 463 51 l 463 0 l 154 0 l 154 51 l 103 51 l 103 103 l 51 103 l 51 669 m 360 206 l 412 206 l 412 566 l 360 566 l 360 617 l 257 617 l 257 566 l 206 566 l 206 206 l 257 206 l 257 154 l 360 154 l 360 206 z "},"Ó":{"ha":617,"x_min":51,"x_max":566,"o":"m 412 1029 l 412 926 l 360 926 l 360 874 l 309 874 l 309 823 l 206 823 l 206 926 l 257 926 l 257 977 l 309 977 l 309 1029 l 412 1029 m 51 669 l 103 669 l 103 720 l 154 720 l 154 772 l 463 772 l 463 720 l 514 720 l 514 669 l 566 669 l 566 103 l 514 103 l 514 51 l 463 51 l 463 0 l 154 0 l 154 51 l 103 51 l 103 103 l 51 103 l 51 669 m 360 206 l 412 206 l 412 566 l 360 566 l 360 617 l 257 617 l 257 566 l 206 566 l 206 206 l 257 206 l 257 154 l 360 154 l 360 206 z "},"Ô":{"ha":617,"x_min":51,"x_max":566,"o":"m 154 926 l 206 926 l 206 977 l 257 977 l 257 1029 l 360 1029 l 360 977 l 412 977 l 412 926 l 463 926 l 463 823 l 360 823 l 360 874 l 257 874 l 257 823 l 154 823 l 154 926 m 51 669 l 103 669 l 103 720 l 154 720 l 154 772 l 463 772 l 463 720 l 514 720 l 514 669 l 566 669 l 566 103 l 514 103 l 514 51 l 463 51 l 463 0 l 154 0 l 154 51 l 103 51 l 103 103 l 51 103 l 51 669 m 360 206 l 412 206 l 412 566 l 360 566 l 360 617 l 257 617 l 257 566 l 206 566 l 206 206 l 257 206 l 257 154 l 360 154 l 360 206 z "},"Ö":{"ha":617,"x_min":51,"x_max":566,"o":"m 360 1029 l 514 1029 l 514 874 l 360 874 l 360 1029 m 103 1029 l 257 1029 l 257 874 l 103 874 l 103 1029 m 51 669 l 103 669 l 103 720 l 154 720 l 154 772 l 463 772 l 463 720 l 514 720 l 514 669 l 566 669 l 566 103 l 514 103 l 514 51 l 463 51 l 463 0 l 154 0 l 154 51 l 103 51 l 103 103 l 51 103 l 51 669 m 360 206 l 412 206 l 412 566 l 360 566 l 360 617 l 257 617 l 257 566 l 206 566 l 206 206 l 257 206 l 257 154 l 360 154 l 360 206 z "},"Ò":{"ha":617,"x_min":51,"x_max":566,"o":"m 360 926 l 412 926 l 412 823 l 309 823 l 309 874 l 257 874 l 257 926 l 206 926 l 206 1029 l 309 1029 l 309 977 l 360 977 l 360 926 m 51 669 l 103 669 l 103 720 l 154 720 l 154 772 l 463 772 l 463 720 l 514 720 l 514 669 l 566 669 l 566 103 l 514 103 l 514 51 l 463 51 l 463 0 l 154 0 l 154 51 l 103 51 l 103 103 l 51 103 l 51 669 m 360 206 l 412 206 l 412 566 l 360 566 l 360 617 l 257 617 l 257 566 l 206 566 l 206 206 l 257 206 l 257 154 l 360 154 l 360 206 z "},"Ø":{"ha":720,"x_min":0,"x_max":720,"o":"m 0 103 l 51 103 l 51 154 l 103 154 l 103 669 l 154 669 l 154 720 l 206 720 l 206 772 l 514 772 l 514 720 l 617 720 l 617 772 l 720 772 l 720 669 l 669 669 l 669 617 l 617 617 l 617 103 l 566 103 l 566 51 l 514 51 l 514 0 l 206 0 l 206 51 l 103 51 l 103 0 l 0 0 l 0 103 m 257 412 l 309 412 l 309 463 l 360 463 l 360 514 l 412 514 l 412 566 l 463 566 l 463 617 l 309 617 l 309 566 l 257 566 l 257 412 m 412 206 l 463 206 l 463 412 l 412 412 l 412 360 l 360 360 l 360 309 l 309 309 l 309 257 l 257 257 l 257 206 l 309 206 l 309 154 l 412 154 l 412 206 z "},"Õ":{"ha":617,"x_min":51,"x_max":566,"o":"m 360 874 l 206 874 l 206 823 l 154 823 l 154 977 l 206 977 l 206 1029 l 257 1029 l 257 977 l 412 977 l 412 1029 l 463 1029 l 463 874 l 412 874 l 412 823 l 360 823 l 360 874 m 51 669 l 103 669 l 103 720 l 154 720 l 154 772 l 463 772 l 463 720 l 514 720 l 514 669 l 566 669 l 566 103 l 514 103 l 514 51 l 463 51 l 463 0 l 154 0 l 154 51 l 103 51 l 103 103 l 51 103 l 51 669 m 360 206 l 412 206 l 412 566 l 360 566 l 360 617 l 257 617 l 257 566 l 206 566 l 206 206 l 257 206 l 257 154 l 360 154 l 360 206 z "},"Œ":{"ha":874,"x_min":51,"x_max":823,"o":"m 360 206 l 412 206 l 412 566 l 360 566 l 360 617 l 257 617 l 257 566 l 206 566 l 206 206 l 257 206 l 257 154 l 360 154 l 360 206 m 51 669 l 103 669 l 103 720 l 154 720 l 154 772 l 823 772 l 823 617 l 566 617 l 566 463 l 772 463 l 772 309 l 566 309 l 566 154 l 823 154 l 823 0 l 154 0 l 154 51 l 103 51 l 103 103 l 51 103 l 51 669 z "},"P":{"ha":617,"x_min":51,"x_max":566,"o":"m 51 772 l 463 772 l 463 720 l 514 720 l 514 669 l 566 669 l 566 360 l 514 360 l 514 309 l 463 309 l 463 257 l 206 257 l 206 0 l 51 0 l 51 772 m 360 463 l 412 463 l 412 566 l 360 566 l 360 617 l 206 617 l 206 412 l 360 412 l 360 463 z "},"Þ":{"ha":617,"x_min":51,"x_max":566,"o":"m 360 360 l 412 360 l 412 412 l 360 412 l 360 463 l 206 463 l 206 309 l 360 309 l 360 360 m 514 514 l 566 514 l 566 257 l 514 257 l 514 206 l 463 206 l 463 154 l 206 154 l 206 0 l 51 0 l 51 772 l 206 772 l 206 617 l 463 617 l 463 566 l 514 566 l 514 514 z "},"Q":{"ha":617,"x_min":51,"x_max":566,"o":"m 360 206 l 412 206 l 412 566 l 360 566 l 360 617 l 257 617 l 257 566 l 206 566 l 206 206 l 257 206 l 257 154 l 360 154 l 360 206 m 309 0 l 154 0 l 154 51 l 103 51 l 103 103 l 51 103 l 51 669 l 103 669 l 103 720 l 154 720 l 154 772 l 463 772 l 463 720 l 514 720 l 514 669 l 566 669 l 566 103 l 463 103 l 463 51 l 566 51 l 566 -103 l 360 -103 l 360 -51 l 309 -51 l 309 0 z "},"R":{"ha":617,"x_min":51,"x_max":566,"o":"m 360 257 l 206 257 l 206 0 l 51 0 l 51 772 l 463 772 l 463 720 l 514 720 l 514 669 l 566 669 l 566 360 l 514 360 l 514 257 l 566 257 l 566 0 l 412 0 l 412 206 l 360 206 l 360 257 m 360 463 l 412 463 l 412 566 l 360 566 l 360 617 l 206 617 l 206 412 l 360 412 l 360 463 z "},"S":{"ha":669,"x_min":51,"x_max":617,"o":"m 103 103 l 51 103 l 51 257 l 206 257 l 206 206 l 257 206 l 257 154 l 412 154 l 412 206 l 463 206 l 463 257 l 412 257 l 412 309 l 154 309 l 154 360 l 103 360 l 103 412 l 51 412 l 51 669 l 103 669 l 103 720 l 154 720 l 154 772 l 514 772 l 514 720 l 566 720 l 566 669 l 617 669 l 617 514 l 463 514 l 463 566 l 412 566 l 412 617 l 257 617 l 257 566 l 206 566 l 206 514 l 257 514 l 257 463 l 514 463 l 514 412 l 566 412 l 566 360 l 617 360 l 617 103 l 566 103 l 566 51 l 514 51 l 514 0 l 154 0 l 154 51 l 103 51 l 103 103 z "},"T":{"ha":566,"x_min":51,"x_max":514,"o":"m 51 772 l 514 772 l 514 617 l 360 617 l 360 0 l 206 0 l 206 617 l 51 617 l 51 772 z "},"U":{"ha":617,"x_min":51,"x_max":566,"o":"m 360 206 l 412 206 l 412 772 l 566 772 l 566 103 l 514 103 l 514 51 l 463 51 l 463 0 l 154 0 l 154 51 l 103 51 l 103 103 l 51 103 l 51 772 l 206 772 l 206 206 l 257 206 l 257 154 l 360 154 l 360 206 z "},"Ú":{"ha":617,"x_min":51,"x_max":566,"o":"m 412 1029 l 412 926 l 360 926 l 360 874 l 309 874 l 309 823 l 206 823 l 206 926 l 257 926 l 257 977 l 309 977 l 309 1029 l 412 1029 m 360 206 l 412 206 l 412 772 l 566 772 l 566 103 l 514 103 l 514 51 l 463 51 l 463 0 l 154 0 l 154 51 l 103 51 l 103 103 l 51 103 l 51 772 l 206 772 l 206 206 l 257 206 l 257 154 l 360 154 l 360 206 z "},"Û":{"ha":617,"x_min":51,"x_max":566,"o":"m 154 926 l 206 926 l 206 977 l 257 977 l 257 1029 l 360 1029 l 360 977 l 412 977 l 412 926 l 463 926 l 463 823 l 360 823 l 360 874 l 257 874 l 257 823 l 154 823 l 154 926 m 360 206 l 412 206 l 412 772 l 566 772 l 566 103 l 514 103 l 514 51 l 463 51 l 463 0 l 154 0 l 154 51 l 103 51 l 103 103 l 51 103 l 51 772 l 206 772 l 206 206 l 257 206 l 257 154 l 360 154 l 360 206 z "},"Ü":{"ha":617,"x_min":51,"x_max":566,"o":"m 360 1029 l 514 1029 l 514 874 l 360 874 l 360 1029 m 103 1029 l 257 1029 l 257 874 l 103 874 l 103 1029 m 360 206 l 412 206 l 412 772 l 566 772 l 566 103 l 514 103 l 514 51 l 463 51 l 463 0 l 154 0 l 154 51 l 103 51 l 103 103 l 51 103 l 51 772 l 206 772 l 206 206 l 257 206 l 257 154 l 360 154 l 360 206 z "},"Ù":{"ha":617,"x_min":51,"x_max":566,"o":"m 360 926 l 412 926 l 412 823 l 309 823 l 309 874 l 257 874 l 257 926 l 206 926 l 206 1029 l 309 1029 l 309 977 l 360 977 l 360 926 m 360 206 l 412 206 l 412 772 l 566 772 l 566 103 l 514 103 l 514 51 l 463 51 l 463 0 l 154 0 l 154 51 l 103 51 l 103 103 l 51 103 l 51 772 l 206 772 l 206 206 l 257 206 l 257 154 l 360 154 l 360 206 z "},"V":{"ha":617,"x_min":51,"x_max":566,"o":"m 154 154 l 103 154 l 103 206 l 51 206 l 51 772 l 206 772 l 206 257 l 257 257 l 257 206 l 360 206 l 360 257 l 412 257 l 412 772 l 566 772 l 566 206 l 514 206 l 514 154 l 463 154 l 463 103 l 412 103 l 412 51 l 360 51 l 360 0 l 257 0 l 257 51 l 206 51 l 206 103 l 154 103 l 154 154 z "},"W":{"ha":874,"x_min":51,"x_max":823,"o":"m 154 154 l 103 154 l 103 206 l 51 206 l 51 772 l 206 772 l 206 257 l 257 257 l 257 206 l 309 206 l 309 257 l 360 257 l 360 772 l 514 772 l 514 257 l 566 257 l 566 206 l 617 206 l 617 257 l 669 257 l 669 772 l 823 772 l 823 206 l 772 206 l 772 154 l 720 154 l 720 103 l 669 103 l 669 51 l 617 51 l 617 0 l 566 0 l 566 51 l 514 51 l 514 103 l 463 103 l 463 154 l 412 154 l 412 103 l 360 103 l 360 51 l 309 51 l 309 0 l 257 0 l 257 51 l 206 51 l 206 103 l 154 103 l 154 154 z "},"X":{"ha":617,"x_min":51,"x_max":566,"o":"m 51 257 l 103 257 l 103 309 l 154 309 l 154 360 l 206 360 l 206 412 l 154 412 l 154 463 l 103 463 l 103 514 l 51 514 l 51 772 l 206 772 l 206 566 l 257 566 l 257 514 l 360 514 l 360 566 l 412 566 l 412 772 l 566 772 l 566 514 l 514 514 l 514 463 l 463 463 l 463 412 l 412 412 l 412 360 l 463 360 l 463 309 l 514 309 l 514 257 l 566 257 l 566 0 l 412 0 l 412 206 l 360 206 l 360 257 l 257 257 l 257 206 l 206 206 l 206 0 l 51 0 l 51 257 z "},"Y":{"ha":669,"x_min":51,"x_max":617,"o":"m 309 412 l 360 412 l 360 463 l 412 463 l 412 514 l 463 514 l 463 772 l 617 772 l 617 463 l 566 463 l 566 412 l 514 412 l 514 360 l 463 360 l 463 309 l 412 309 l 412 0 l 257 0 l 257 309 l 206 309 l 206 360 l 154 360 l 154 412 l 103 412 l 103 463 l 51 463 l 51 772 l 206 772 l 206 514 l 257 514 l 257 463 l 309 463 l 309 412 z "},"Ý":{"ha":669,"x_min":51,"x_max":617,"o":"m 463 1029 l 463 926 l 412 926 l 412 874 l 360 874 l 360 823 l 257 823 l 257 926 l 309 926 l 309 977 l 360 977 l 360 1029 l 463 1029 m 309 412 l 360 412 l 360 463 l 412 463 l 412 514 l 463 514 l 463 772 l 617 772 l 617 463 l 566 463 l 566 412 l 514 412 l 514 360 l 463 360 l 463 309 l 412 309 l 412 0 l 257 0 l 257 309 l 206 309 l 206 360 l 154 360 l 154 412 l 103 412 l 103 463 l 51 463 l 51 772 l 206 772 l 206 514 l 257 514 l 257 463 l 309 463 l 309 412 z "},"Z":{"ha":617,"x_min":51,"x_max":566,"o":"m 206 154 l 566 154 l 566 0 l 51 0 l 51 257 l 103 257 l 103 309 l 154 309 l 154 360 l 206 360 l 206 412 l 257 412 l 257 463 l 309 463 l 309 514 l 360 514 l 360 566 l 412 566 l 412 617 l 51 617 l 51 772 l 566 772 l 566 514 l 514 514 l 514 463 l 463 463 l 463 412 l 412 412 l 412 360 l 360 360 l 360 309 l 309 309 l 309 257 l 257 257 l 257 206 l 206 206 l 206 154 z "},"a":{"ha":617,"x_min":51,"x_max":566,"o":"m 51 257 l 103 257 l 103 309 l 154 309 l 154 360 l 412 360 l 412 412 l 51 412 l 51 463 l 103 463 l 103 514 l 154 514 l 154 566 l 463 566 l 463 514 l 514 514 l 514 463 l 566 463 l 566 0 l 412 0 l 412 51 l 360 51 l 360 0 l 154 0 l 154 51 l 103 51 l 103 103 l 51 103 l 51 257 m 206 154 l 412 154 l 412 257 l 206 257 l 206 154 z "},"á":{"ha":617,"x_min":51,"x_max":566,"o":"m 206 772 l 257 772 l 257 823 l 309 823 l 309 874 l 412 874 l 412 772 l 360 772 l 360 720 l 309 720 l 309 669 l 206 669 l 206 772 m 51 257 l 103 257 l 103 309 l 154 309 l 154 360 l 412 360 l 412 412 l 51 412 l 51 463 l 103 463 l 103 514 l 154 514 l 154 566 l 463 566 l 463 514 l 514 514 l 514 463 l 566 463 l 566 0 l 412 0 l 412 51 l 360 51 l 360 0 l 154 0 l 154 51 l 103 51 l 103 103 l 51 103 l 51 257 m 206 154 l 412 154 l 412 257 l 206 257 l 206 154 z "},"â":{"ha":617,"x_min":51,"x_max":566,"o":"m 154 772 l 206 772 l 206 823 l 257 823 l 257 874 l 360 874 l 360 823 l 412 823 l 412 772 l 463 772 l 463 669 l 360 669 l 360 720 l 257 720 l 257 669 l 154 669 l 154 772 m 51 257 l 103 257 l 103 309 l 154 309 l 154 360 l 412 360 l 412 412 l 51 412 l 51 463 l 103 463 l 103 514 l 154 514 l 154 566 l 463 566 l 463 514 l 514 514 l 514 463 l 566 463 l 566 0 l 412 0 l 412 51 l 360 51 l 360 0 l 154 0 l 154 51 l 103 51 l 103 103 l 51 103 l 51 257 m 206 154 l 412 154 l 412 257 l 206 257 l 206 154 z "},"ä":{"ha":617,"x_min":51,"x_max":566,"o":"m 360 823 l 514 823 l 514 669 l 360 669 l 360 823 m 103 823 l 257 823 l 257 669 l 103 669 l 103 823 m 206 154 l 412 154 l 412 257 l 206 257 l 206 154 m 51 257 l 103 257 l 103 309 l 154 309 l 154 360 l 412 360 l 412 412 l 51 412 l 51 463 l 103 463 l 103 514 l 154 514 l 154 566 l 463 566 l 463 514 l 514 514 l 514 463 l 566 463 l 566 0 l 412 0 l 412 51 l 360 51 l 360 0 l 154 0 l 154 51 l 103 51 l 103 103 l 51 103 l 51 257 z "},"à":{"ha":617,"x_min":51,"x_max":566,"o":"m 206 874 l 309 874 l 309 823 l 360 823 l 360 772 l 412 772 l 412 669 l 309 669 l 309 720 l 257 720 l 257 772 l 206 772 l 206 874 m 51 257 l 103 257 l 103 309 l 154 309 l 154 360 l 412 360 l 412 412 l 51 412 l 51 463 l 103 463 l 103 514 l 154 514 l 154 566 l 463 566 l 463 514 l 514 514 l 514 463 l 566 463 l 566 0 l 412 0 l 412 51 l 360 51 l 360 0 l 154 0 l 154 51 l 103 51 l 103 103 l 51 103 l 51 257 m 206 154 l 412 154 l 412 257 l 206 257 l 206 154 z "},"å":{"ha":617,"x_min":51,"x_max":566,"o":"m 360 720 l 360 823 l 257 823 l 257 720 l 360 720 m 51 257 l 103 257 l 103 309 l 154 309 l 154 360 l 412 360 l 412 412 l 51 412 l 51 463 l 103 463 l 103 514 l 154 514 l 154 566 l 463 566 l 463 514 l 514 514 l 514 463 l 566 463 l 566 0 l 412 0 l 412 51 l 360 51 l 360 0 l 154 0 l 154 51 l 103 51 l 103 103 l 51 103 l 51 257 m 257 669 l 206 669 l 206 720 l 154 720 l 154 823 l 206 823 l 206 874 l 257 874 l 257 926 l 360 926 l 360 874 l 412 874 l 412 823 l 463 823 l 463 720 l 412 720 l 412 669 l 360 669 l 360 617 l 257 617 l 257 669 m 206 154 l 412 154 l 412 257 l 206 257 l 206 154 z "},"ã":{"ha":617,"x_min":51,"x_max":566,"o":"m 360 669 l 309 669 l 309 720 l 206 720 l 206 669 l 154 669 l 154 823 l 206 823 l 206 874 l 257 874 l 257 823 l 309 823 l 309 772 l 412 772 l 412 823 l 463 823 l 463 669 l 412 669 l 412 617 l 360 617 l 360 669 m 51 257 l 103 257 l 103 309 l 154 309 l 154 360 l 412 360 l 412 412 l 51 412 l 51 463 l 103 463 l 103 514 l 154 514 l 154 566 l 463 566 l 463 514 l 514 514 l 514 463 l 566 463 l 566 0 l 412 0 l 412 51 l 360 51 l 360 0 l 154 0 l 154 51 l 103 51 l 103 103 l 51 103 l 51 257 m 206 154 l 412 154 l 412 257 l 206 257 l 206 154 z "},"æ":{"ha":977,"x_min":51,"x_max":926,"o":"m 206 154 l 412 154 l 412 257 l 206 257 l 206 154 m 566 309 l 772 309 l 772 412 l 566 412 l 566 309 m 51 257 l 103 257 l 103 309 l 154 309 l 154 360 l 412 360 l 412 412 l 51 412 l 51 463 l 103 463 l 103 514 l 154 514 l 154 566 l 463 566 l 463 514 l 514 514 l 514 566 l 823 566 l 823 514 l 874 514 l 874 463 l 926 463 l 926 206 l 566 206 l 566 154 l 926 154 l 926 103 l 874 103 l 874 51 l 823 51 l 823 0 l 412 0 l 412 51 l 360 51 l 360 0 l 154 0 l 154 51 l 103 51 l 103 103 l 51 103 l 51 257 z "},"b":{"ha":617,"x_min":51,"x_max":566,"o":"m 257 566 l 463 566 l 463 514 l 514 514 l 514 463 l 566 463 l 566 103 l 514 103 l 514 51 l 463 51 l 463 0 l 51 0 l 51 772 l 206 772 l 206 514 l 257 514 l 257 566 m 257 412 l 257 360 l 206 360 l 206 154 l 412 154 l 412 412 l 257 412 z "},"c":{"ha":617,"x_min":51,"x_max":566,"o":"m 103 103 l 51 103 l 51 463 l 103 463 l 103 514 l 154 514 l 154 566 l 463 566 l 463 514 l 514 514 l 514 463 l 566 463 l 566 360 l 412 360 l 412 412 l 206 412 l 206 154 l 412 154 l 412 206 l 566 206 l 566 103 l 514 103 l 514 51 l 463 51 l 463 0 l 154 0 l 154 51 l 103 51 l 103 103 z "},"ç":{"ha":617,"x_min":51,"x_max":566,"o":"m 103 103 l 51 103 l 51 463 l 103 463 l 103 514 l 154 514 l 154 566 l 463 566 l 463 514 l 514 514 l 514 463 l 566 463 l 566 360 l 412 360 l 412 412 l 206 412 l 206 154 l 412 154 l 412 206 l 566 206 l 566 103 l 514 103 l 514 51 l 463 51 l 463 0 l 360 0 l 360 -51 l 412 -51 l 412 -103 l 463 -103 l 463 -206 l 412 -206 l 412 -257 l 206 -257 l 206 -154 l 360 -154 l 360 -103 l 257 -103 l 257 0 l 154 0 l 154 51 l 103 51 l 103 103 z "},"d":{"ha":617,"x_min":51,"x_max":566,"o":"m 360 206 l 412 206 l 412 412 l 206 412 l 206 154 l 360 154 l 360 206 m 566 772 l 566 0 l 412 0 l 412 51 l 360 51 l 360 0 l 154 0 l 154 51 l 103 51 l 103 103 l 51 103 l 51 463 l 103 463 l 103 514 l 154 514 l 154 566 l 412 566 l 412 772 l 566 772 z "},"ð":{"ha":617,"x_min":51,"x_max":566,"o":"m 154 412 l 154 463 l 309 463 l 309 566 l 206 566 l 206 514 l 154 514 l 154 617 l 206 617 l 206 669 l 154 669 l 154 772 l 360 772 l 360 823 l 412 823 l 412 720 l 360 720 l 360 669 l 412 669 l 412 617 l 463 617 l 463 514 l 514 514 l 514 412 l 566 412 l 566 103 l 514 103 l 514 51 l 463 51 l 463 0 l 154 0 l 154 51 l 103 51 l 103 103 l 51 103 l 51 360 l 103 360 l 103 412 l 154 412 m 412 154 l 412 309 l 206 309 l 206 154 l 412 154 z "},"e":{"ha":617,"x_min":51,"x_max":566,"o":"m 103 103 l 51 103 l 51 463 l 103 463 l 103 514 l 154 514 l 154 566 l 463 566 l 463 514 l 514 514 l 514 463 l 566 463 l 566 206 l 206 206 l 206 154 l 566 154 l 566 103 l 514 103 l 514 51 l 463 51 l 463 0 l 154 0 l 154 51 l 103 51 l 103 103 m 206 309 l 412 309 l 412 412 l 206 412 l 206 309 z "},"é":{"ha":617,"x_min":51,"x_max":566,"o":"m 206 772 l 257 772 l 257 823 l 309 823 l 309 874 l 412 874 l 412 772 l 360 772 l 360 720 l 309 720 l 309 669 l 206 669 l 206 772 m 206 309 l 412 309 l 412 412 l 206 412 l 206 309 m 103 103 l 51 103 l 51 463 l 103 463 l 103 514 l 154 514 l 154 566 l 463 566 l 463 514 l 514 514 l 514 463 l 566 463 l 566 206 l 206 206 l 206 154 l 566 154 l 566 103 l 514 103 l 514 51 l 463 51 l 463 0 l 154 0 l 154 51 l 103 51 l 103 103 z "},"ê":{"ha":617,"x_min":51,"x_max":566,"o":"m 154 772 l 206 772 l 206 823 l 257 823 l 257 874 l 360 874 l 360 823 l 412 823 l 412 772 l 463 772 l 463 669 l 360 669 l 360 720 l 257 720 l 257 669 l 154 669 l 154 772 m 206 309 l 412 309 l 412 412 l 206 412 l 206 309 m 103 103 l 51 103 l 51 463 l 103 463 l 103 514 l 154 514 l 154 566 l 463 566 l 463 514 l 514 514 l 514 463 l 566 463 l 566 206 l 206 206 l 206 154 l 566 154 l 566 103 l 514 103 l 514 51 l 463 51 l 463 0 l 154 0 l 154 51 l 103 51 l 103 103 z "},"ë":{"ha":617,"x_min":51,"x_max":566,"o":"m 360 823 l 514 823 l 514 669 l 360 669 l 360 823 m 103 823 l 257 823 l 257 669 l 103 669 l 103 823 m 103 103 l 51 103 l 51 463 l 103 463 l 103 514 l 154 514 l 154 566 l 463 566 l 463 514 l 514 514 l 514 463 l 566 463 l 566 206 l 206 206 l 206 154 l 566 154 l 566 103 l 514 103 l 514 51 l 463 51 l 463 0 l 154 0 l 154 51 l 103 51 l 103 103 m 206 309 l 412 309 l 412 412 l 206 412 l 206 309 z "},"è":{"ha":617,"x_min":51,"x_max":566,"o":"m 206 874 l 309 874 l 309 823 l 360 823 l 360 772 l 412 772 l 412 669 l 309 669 l 309 720 l 257 720 l 257 772 l 206 772 l 206 874 m 206 309 l 412 309 l 412 412 l 206 412 l 206 309 m 103 103 l 51 103 l 51 463 l 103 463 l 103 514 l 154 514 l 154 566 l 463 566 l 463 514 l 514 514 l 514 463 l 566 463 l 566 206 l 206 206 l 206 154 l 566 154 l 566 103 l 514 103 l 514 51 l 463 51 l 463 0 l 154 0 l 154 51 l 103 51 l 103 103 z "},"f":{"ha":463,"x_min":51,"x_max":463,"o":"m 51 514 l 154 514 l 154 669 l 206 669 l 206 720 l 257 720 l 257 772 l 463 772 l 463 669 l 360 669 l 360 617 l 309 617 l 309 514 l 463 514 l 463 412 l 309 412 l 309 0 l 154 0 l 154 412 l 51 412 l 51 514 z "},"g":{"ha":617,"x_min":51,"x_max":566,"o":"m 51 0 l 206 0 l 206 -51 l 257 -51 l 257 -103 l 360 -103 l 360 -51 l 412 -51 l 412 103 l 360 103 l 360 51 l 154 51 l 154 103 l 103 103 l 103 154 l 51 154 l 51 463 l 103 463 l 103 514 l 154 514 l 154 566 l 566 566 l 566 -103 l 514 -103 l 514 -154 l 463 -154 l 463 -206 l 154 -206 l 154 -154 l 103 -154 l 103 -103 l 51 -103 l 51 0 m 206 206 l 412 206 l 412 412 l 206 412 l 206 206 z "},"h":{"ha":617,"x_min":51,"x_max":566,"o":"m 206 514 l 257 514 l 257 566 l 463 566 l 463 514 l 514 514 l 514 463 l 566 463 l 566 0 l 412 0 l 412 412 l 257 412 l 257 360 l 206 360 l 206 0 l 51 0 l 51 772 l 206 772 l 206 514 z "},"i":{"ha":257,"x_min":51,"x_max":206,"o":"m 51 772 l 206 772 l 206 617 l 51 617 l 51 772 m 51 514 l 206 514 l 206 0 l 51 0 l 51 514 z "},"ı":{"ha":257,"x_min":51,"x_max":206,"o":"m 51 514 l 206 514 l 206 0 l 51 0 l 51 514 z "},"í":{"ha":257,"x_min":51,"x_max":257,"o":"m 51 772 l 103 772 l 103 823 l 154 823 l 154 874 l 257 874 l 257 772 l 206 772 l 206 720 l 154 720 l 154 669 l 51 669 l 51 772 m 51 514 l 206 514 l 206 0 l 51 0 l 51 514 z "},"î":{"ha":257,"x_min":-51,"x_max":309,"o":"m -51 772 l 0 772 l 0 823 l 51 823 l 51 874 l 206 874 l 206 823 l 257 823 l 257 772 l 309 772 l 309 669 l 206 669 l 206 720 l 154 720 l 154 772 l 103 772 l 103 720 l 51 720 l 51 669 l -51 669 l -51 772 m 51 514 l 206 514 l 206 0 l 51 0 l 51 514 z "},"ï":{"ha":257,"x_min":0,"x_max":257,"o":"m 0 772 l 103 772 l 103 669 l 0 669 l 0 772 m 154 772 l 257 772 l 257 669 l 154 669 l 154 772 m 51 514 l 206 514 l 206 0 l 51 0 l 51 514 z "},"ì":{"ha":257,"x_min":51,"x_max":257,"o":"m 51 874 l 154 874 l 154 823 l 206 823 l 206 772 l 257 772 l 257 669 l 154 669 l 154 720 l 103 720 l 103 772 l 51 772 l 51 874 m 51 514 l 206 514 l 206 0 l 51 0 l 51 514 z "},"j":{"ha":309,"x_min":0,"x_max":257,"o":"m 103 772 l 257 772 l 257 617 l 103 617 l 103 772 m 51 -51 l 103 -51 l 103 514 l 257 514 l 257 -103 l 206 -103 l 206 -154 l 154 -154 l 154 -206 l 0 -206 l 0 -103 l 51 -103 l 51 -51 z "},"k":{"ha":514,"x_min":51,"x_max":463,"o":"m 257 206 l 206 206 l 206 0 l 51 0 l 51 772 l 206 772 l 206 360 l 257 360 l 257 412 l 309 412 l 309 566 l 463 566 l 463 360 l 412 360 l 412 309 l 360 309 l 360 257 l 412 257 l 412 206 l 463 206 l 463 0 l 309 0 l 309 154 l 257 154 l 257 206 z "},"l":{"ha":257,"x_min":51,"x_max":206,"o":"m 51 772 l 206 772 l 206 0 l 51 0 l 51 772 z "},"m":{"ha":874,"x_min":51,"x_max":823,"o":"m 206 514 l 257 514 l 257 566 l 412 566 l 412 514 l 463 514 l 463 463 l 514 463 l 514 514 l 566 514 l 566 566 l 720 566 l 720 514 l 772 514 l 772 463 l 823 463 l 823 0 l 669 0 l 669 412 l 566 412 l 566 360 l 514 360 l 514 0 l 360 0 l 360 412 l 257 412 l 257 360 l 206 360 l 206 0 l 51 0 l 51 566 l 206 566 l 206 514 z "},"n":{"ha":617,"x_min":51,"x_max":566,"o":"m 206 514 l 257 514 l 257 566 l 463 566 l 463 514 l 514 514 l 514 463 l 566 463 l 566 0 l 412 0 l 412 412 l 257 412 l 257 360 l 206 360 l 206 0 l 51 0 l 51 566 l 206 566 l 206 514 z "},"ñ":{"ha":617,"x_min":51,"x_max":566,"o":"m 360 669 l 309 669 l 309 720 l 206 720 l 206 669 l 154 669 l 154 823 l 206 823 l 206 874 l 257 874 l 257 823 l 309 823 l 309 772 l 412 772 l 412 823 l 463 823 l 463 669 l 412 669 l 412 617 l 360 617 l 360 669 m 206 514 l 257 514 l 257 566 l 463 566 l 463 514 l 514 514 l 514 463 l 566 463 l 566 0 l 412 0 l 412 412 l 257 412 l 257 360 l 206 360 l 206 0 l 51 0 l 51 566 l 206 566 l 206 514 z "},"o":{"ha":617,"x_min":51,"x_max":566,"o":"m 206 154 l 412 154 l 412 412 l 206 412 l 206 154 m 103 103 l 51 103 l 51 463 l 103 463 l 103 514 l 154 514 l 154 566 l 463 566 l 463 514 l 514 514 l 514 463 l 566 463 l 566 103 l 514 103 l 514 51 l 463 51 l 463 0 l 154 0 l 154 51 l 103 51 l 103 103 z "},"ó":{"ha":617,"x_min":51,"x_max":566,"o":"m 206 772 l 257 772 l 257 823 l 309 823 l 309 874 l 412 874 l 412 772 l 360 772 l 360 720 l 309 720 l 309 669 l 206 669 l 206 772 m 206 154 l 412 154 l 412 412 l 206 412 l 206 154 m 103 103 l 51 103 l 51 463 l 103 463 l 103 514 l 154 514 l 154 566 l 463 566 l 463 514 l 514 514 l 514 463 l 566 463 l 566 103 l 514 103 l 514 51 l 463 51 l 463 0 l 154 0 l 154 51 l 103 51 l 103 103 z "},"ô":{"ha":617,"x_min":51,"x_max":566,"o":"m 154 772 l 206 772 l 206 823 l 257 823 l 257 874 l 360 874 l 360 823 l 412 823 l 412 772 l 463 772 l 463 669 l 360 669 l 360 720 l 257 720 l 257 669 l 154 669 l 154 772 m 103 103 l 51 103 l 51 463 l 103 463 l 103 514 l 154 514 l 154 566 l 463 566 l 463 514 l 514 514 l 514 463 l 566 463 l 566 103 l 514 103 l 514 51 l 463 51 l 463 0 l 154 0 l 154 51 l 103 51 l 103 103 m 206 154 l 412 154 l 412 412 l 206 412 l 206 154 z "},"ö":{"ha":617,"x_min":51,"x_max":566,"o":"m 360 823 l 514 823 l 514 669 l 360 669 l 360 823 m 103 823 l 257 823 l 257 669 l 103 669 l 103 823 m 206 154 l 412 154 l 412 412 l 206 412 l 206 154 m 103 103 l 51 103 l 51 463 l 103 463 l 103 514 l 154 514 l 154 566 l 463 566 l 463 514 l 514 514 l 514 463 l 566 463 l 566 103 l 514 103 l 514 51 l 463 51 l 463 0 l 154 0 l 154 51 l 103 51 l 103 103 z "},"ò":{"ha":617,"x_min":51,"x_max":566,"o":"m 206 874 l 309 874 l 309 823 l 360 823 l 360 772 l 412 772 l 412 669 l 309 669 l 309 720 l 257 720 l 257 772 l 206 772 l 206 874 m 206 154 l 412 154 l 412 412 l 206 412 l 206 154 m 103 103 l 51 103 l 51 463 l 103 463 l 103 514 l 154 514 l 154 566 l 463 566 l 463 514 l 514 514 l 514 463 l 566 463 l 566 103 l 514 103 l 514 51 l 463 51 l 463 0 l 154 0 l 154 51 l 103 51 l 103 103 z "},"ø":{"ha":617,"x_min":0,"x_max":617,"o":"m 206 257 l 257 257 l 257 309 l 309 309 l 309 360 l 360 360 l 360 412 l 206 412 l 206 257 m 309 257 l 309 206 l 257 206 l 257 154 l 412 154 l 412 309 l 360 309 l 360 257 l 309 257 m 0 103 l 51 103 l 51 463 l 103 463 l 103 514 l 154 514 l 154 566 l 463 566 l 463 514 l 566 514 l 566 566 l 617 566 l 617 463 l 566 463 l 566 103 l 514 103 l 514 51 l 463 51 l 463 0 l 154 0 l 154 51 l 51 51 l 51 0 l 0 0 l 0 103 z "},"õ":{"ha":617,"x_min":51,"x_max":566,"o":"m 360 669 l 309 669 l 309 720 l 206 720 l 206 669 l 154 669 l 154 823 l 206 823 l 206 874 l 257 874 l 257 823 l 309 823 l 309 772 l 412 772 l 412 823 l 463 823 l 463 669 l 412 669 l 412 617 l 360 617 l 360 669 m 103 103 l 51 103 l 51 463 l 103 463 l 103 514 l 154 514 l 154 566 l 463 566 l 463 514 l 514 514 l 514 463 l 566 463 l 566 103 l 514 103 l 514 51 l 463 51 l 463 0 l 154 0 l 154 51 l 103 51 l 103 103 m 206 154 l 412 154 l 412 412 l 206 412 l 206 154 z "},"œ":{"ha":977,"x_min":51,"x_max":926,"o":"m 206 154 l 412 154 l 412 412 l 206 412 l 206 154 m 566 309 l 772 309 l 772 412 l 566 412 l 566 309 m 103 103 l 51 103 l 51 463 l 103 463 l 103 514 l 154 514 l 154 566 l 463 566 l 463 514 l 514 514 l 514 566 l 823 566 l 823 514 l 874 514 l 874 463 l 926 463 l 926 206 l 566 206 l 566 154 l 926 154 l 926 103 l 874 103 l 874 51 l 823 51 l 823 0 l 514 0 l 514 51 l 463 51 l 463 0 l 154 0 l 154 51 l 103 51 l 103 103 z "},"p":{"ha":617,"x_min":51,"x_max":566,"o":"m 257 412 l 257 360 l 206 360 l 206 154 l 412 154 l 412 412 l 257 412 m 51 566 l 206 566 l 206 514 l 257 514 l 257 566 l 463 566 l 463 514 l 514 514 l 514 463 l 566 463 l 566 103 l 514 103 l 514 51 l 463 51 l 463 0 l 206 0 l 206 -206 l 51 -206 l 51 566 z "},"þ":{"ha":617,"x_min":51,"x_max":566,"o":"m 257 566 l 463 566 l 463 514 l 514 514 l 514 463 l 566 463 l 566 103 l 514 103 l 514 51 l 463 51 l 463 0 l 206 0 l 206 -206 l 51 -206 l 51 772 l 206 772 l 206 514 l 257 514 l 257 566 m 257 412 l 257 360 l 206 360 l 206 154 l 412 154 l 412 412 l 257 412 z "},"q":{"ha":617,"x_min":51,"x_max":566,"o":"m 360 206 l 412 206 l 412 412 l 206 412 l 206 154 l 360 154 l 360 206 m 566 566 l 566 -206 l 412 -206 l 412 51 l 360 51 l 360 0 l 154 0 l 154 51 l 103 51 l 103 103 l 51 103 l 51 463 l 103 463 l 103 514 l 154 514 l 154 566 l 566 566 z "},"r":{"ha":514,"x_min":51,"x_max":514,"o":"m 206 514 l 257 514 l 257 566 l 463 566 l 463 514 l 514 514 l 514 463 l 463 463 l 463 412 l 412 412 l 412 360 l 360 360 l 360 412 l 257 412 l 257 360 l 206 360 l 206 0 l 51 0 l 51 566 l 206 566 l 206 514 z "},"s":{"ha":617,"x_min":51,"x_max":566,"o":"m 103 103 l 51 103 l 51 206 l 206 206 l 206 154 l 257 154 l 257 103 l 360 103 l 360 154 l 412 154 l 412 206 l 360 206 l 360 257 l 154 257 l 154 309 l 103 309 l 103 360 l 51 360 l 51 463 l 103 463 l 103 514 l 154 514 l 154 566 l 463 566 l 463 514 l 514 514 l 514 412 l 360 412 l 360 463 l 257 463 l 257 412 l 206 412 l 206 360 l 463 360 l 463 309 l 514 309 l 514 257 l 566 257 l 566 103 l 514 103 l 514 51 l 463 51 l 463 0 l 154 0 l 154 51 l 103 51 l 103 103 z "},"ß":{"ha":669,"x_min":51,"x_max":617,"o":"m 309 154 l 412 154 l 412 206 l 463 206 l 463 257 l 412 257 l 412 309 l 309 309 l 309 463 l 412 463 l 412 514 l 463 514 l 463 566 l 412 566 l 412 617 l 257 617 l 257 566 l 206 566 l 206 0 l 51 0 l 51 669 l 103 669 l 103 720 l 154 720 l 154 772 l 514 772 l 514 720 l 566 720 l 566 669 l 617 669 l 617 463 l 566 463 l 566 412 l 514 412 l 514 360 l 566 360 l 566 309 l 617 309 l 617 103 l 566 103 l 566 51 l 514 51 l 514 0 l 309 0 l 309 154 z "},"t":{"ha":514,"x_min":51,"x_max":463,"o":"m 206 103 l 154 103 l 154 412 l 51 412 l 51 514 l 154 514 l 154 617 l 206 617 l 206 669 l 257 669 l 257 720 l 309 720 l 309 514 l 463 514 l 463 412 l 309 412 l 309 154 l 360 154 l 360 103 l 463 103 l 463 0 l 257 0 l 257 51 l 206 51 l 206 103 z "},"u":{"ha":617,"x_min":51,"x_max":566,"o":"m 103 103 l 51 103 l 51 566 l 206 566 l 206 154 l 360 154 l 360 206 l 412 206 l 412 566 l 566 566 l 566 0 l 412 0 l 412 51 l 360 51 l 360 0 l 154 0 l 154 51 l 103 51 l 103 103 z "},"ú":{"ha":617,"x_min":51,"x_max":566,"o":"m 206 772 l 257 772 l 257 823 l 309 823 l 309 874 l 412 874 l 412 772 l 360 772 l 360 720 l 309 720 l 309 669 l 206 669 l 206 772 m 103 103 l 51 103 l 51 566 l 206 566 l 206 154 l 360 154 l 360 206 l 412 206 l 412 566 l 566 566 l 566 0 l 412 0 l 412 51 l 360 51 l 360 0 l 154 0 l 154 51 l 103 51 l 103 103 z "},"û":{"ha":617,"x_min":51,"x_max":566,"o":"m 154 772 l 206 772 l 206 823 l 257 823 l 257 874 l 360 874 l 360 823 l 412 823 l 412 772 l 463 772 l 463 669 l 360 669 l 360 720 l 257 720 l 257 669 l 154 669 l 154 772 m 103 103 l 51 103 l 51 566 l 206 566 l 206 154 l 360 154 l 360 206 l 412 206 l 412 566 l 566 566 l 566 0 l 412 0 l 412 51 l 360 51 l 360 0 l 154 0 l 154 51 l 103 51 l 103 103 z "},"ü":{"ha":617,"x_min":51,"x_max":566,"o":"m 360 823 l 514 823 l 514 669 l 360 669 l 360 823 m 103 823 l 257 823 l 257 669 l 103 669 l 103 823 m 103 103 l 51 103 l 51 566 l 206 566 l 206 154 l 360 154 l 360 206 l 412 206 l 412 566 l 566 566 l 566 0 l 412 0 l 412 51 l 360 51 l 360 0 l 154 0 l 154 51 l 103 51 l 103 103 z "},"ù":{"ha":617,"x_min":51,"x_max":566,"o":"m 206 874 l 309 874 l 309 823 l 360 823 l 360 772 l 412 772 l 412 669 l 309 669 l 309 720 l 257 720 l 257 772 l 206 772 l 206 874 m 103 103 l 51 103 l 51 566 l 206 566 l 206 154 l 360 154 l 360 206 l 412 206 l 412 566 l 566 566 l 566 0 l 412 0 l 412 51 l 360 51 l 360 0 l 154 0 l 154 51 l 103 51 l 103 103 z "},"v":{"ha":617,"x_min":51,"x_max":566,"o":"m 154 154 l 103 154 l 103 206 l 51 206 l 51 566 l 206 566 l 206 257 l 257 257 l 257 206 l 360 206 l 360 257 l 412 257 l 412 566 l 566 566 l 566 206 l 514 206 l 514 154 l 463 154 l 463 103 l 412 103 l 412 51 l 360 51 l 360 0 l 257 0 l 257 51 l 206 51 l 206 103 l 154 103 l 154 154 z "},"w":{"ha":874,"x_min":51,"x_max":823,"o":"m 154 154 l 103 154 l 103 206 l 51 206 l 51 566 l 206 566 l 206 257 l 257 257 l 257 206 l 309 206 l 309 257 l 360 257 l 360 566 l 514 566 l 514 257 l 566 257 l 566 206 l 617 206 l 617 257 l 669 257 l 669 566 l 823 566 l 823 206 l 772 206 l 772 154 l 720 154 l 720 103 l 669 103 l 669 51 l 617 51 l 617 0 l 566 0 l 566 51 l 514 51 l 514 103 l 463 103 l 463 154 l 412 154 l 412 103 l 360 103 l 360 51 l 309 51 l 309 0 l 257 0 l 257 51 l 206 51 l 206 103 l 154 103 l 154 154 z "},"x":{"ha":617,"x_min":51,"x_max":566,"o":"m 51 154 l 103 154 l 103 206 l 154 206 l 154 257 l 206 257 l 206 309 l 154 309 l 154 360 l 103 360 l 103 412 l 51 412 l 51 566 l 206 566 l 206 463 l 257 463 l 257 412 l 360 412 l 360 463 l 412 463 l 412 566 l 566 566 l 566 412 l 514 412 l 514 360 l 463 360 l 463 309 l 412 309 l 412 257 l 463 257 l 463 206 l 514 206 l 514 154 l 566 154 l 566 0 l 412 0 l 412 103 l 360 103 l 360 154 l 257 154 l 257 103 l 206 103 l 206 0 l 51 0 l 51 154 z "},"y":{"ha":617,"x_min":51,"x_max":566,"o":"m 51 -51 l 103 -51 l 103 0 l 154 0 l 154 51 l 206 51 l 206 103 l 154 103 l 154 154 l 103 154 l 103 206 l 51 206 l 51 566 l 206 566 l 206 257 l 257 257 l 257 206 l 360 206 l 360 257 l 412 257 l 412 566 l 566 566 l 566 206 l 514 206 l 514 154 l 463 154 l 463 103 l 412 103 l 412 51 l 360 51 l 360 0 l 309 0 l 309 -51 l 257 -51 l 257 -103 l 206 -103 l 206 -154 l 51 -154 l 51 -51 z "},"ý":{"ha":617,"x_min":51,"x_max":566,"o":"m 206 772 l 257 772 l 257 823 l 309 823 l 309 874 l 412 874 l 412 772 l 360 772 l 360 720 l 309 720 l 309 669 l 206 669 l 206 772 m 51 -51 l 103 -51 l 103 0 l 154 0 l 154 51 l 206 51 l 206 103 l 154 103 l 154 154 l 103 154 l 103 206 l 51 206 l 51 566 l 206 566 l 206 257 l 257 257 l 257 206 l 360 206 l 360 257 l 412 257 l 412 566 l 566 566 l 566 206 l 514 206 l 514 154 l 463 154 l 463 103 l 412 103 l 412 51 l 360 51 l 360 0 l 309 0 l 309 -51 l 257 -51 l 257 -103 l 206 -103 l 206 -154 l 51 -154 l 51 -51 z "},"ÿ":{"ha":617,"x_min":51,"x_max":566,"o":"m 360 823 l 514 823 l 514 669 l 360 669 l 360 823 m 103 823 l 257 823 l 257 669 l 103 669 l 103 823 m 51 -51 l 103 -51 l 103 0 l 154 0 l 154 51 l 206 51 l 206 103 l 154 103 l 154 154 l 103 154 l 103 206 l 51 206 l 51 566 l 206 566 l 206 257 l 257 257 l 257 206 l 360 206 l 360 257 l 412 257 l 412 566 l 566 566 l 566 206 l 514 206 l 514 154 l 463 154 l 463 103 l 412 103 l 412 51 l 360 51 l 360 0 l 309 0 l 309 -51 l 257 -51 l 257 -103 l 206 -103 l 206 -154 l 51 -154 l 51 -51 z "},"z":{"ha":566,"x_min":51,"x_max":514,"o":"m 51 154 l 103 154 l 103 206 l 154 206 l 154 257 l 206 257 l 206 309 l 257 309 l 257 360 l 309 360 l 309 412 l 51 412 l 51 566 l 514 566 l 514 412 l 463 412 l 463 360 l 412 360 l 412 309 l 360 309 l 360 257 l 309 257 l 309 206 l 257 206 l 257 154 l 514 154 l 514 0 l 51 0 l 51 154 z "},"ª":{"ha":617,"x_min":51,"x_max":566,"o":"m 51 257 l 103 257 l 103 309 l 154 309 l 154 360 l 412 360 l 412 412 l 51 412 l 51 463 l 103 463 l 103 514 l 154 514 l 154 566 l 463 566 l 463 514 l 514 514 l 514 463 l 566 463 l 566 0 l 412 0 l 412 51 l 360 51 l 360 0 l 154 0 l 154 51 l 103 51 l 103 103 l 51 103 l 51 257 m 206 154 l 412 154 l 412 257 l 206 257 l 206 154 z "},"º":{"ha":617,"x_min":51,"x_max":566,"o":"m 206 154 l 412 154 l 412 412 l 206 412 l 206 154 m 103 103 l 51 103 l 51 463 l 103 463 l 103 514 l 154 514 l 154 566 l 463 566 l 463 514 l 514 514 l 514 463 l 566 463 l 566 103 l 514 103 l 514 51 l 463 51 l 463 0 l 154 0 l 154 51 l 103 51 l 103 103 z "}," ":{"ha":309,"x_min":0,"x_max":0,"o":""}," ":{"ha":309,"x_min":0,"x_max":0,"o":""},".":{"ha":257,"x_min":51,"x_max":206,"o":"m 51 154 l 206 154 l 206 0 l 51 0 l 51 154 z "},",":{"ha":257,"x_min":51,"x_max":206,"o":"m 51 -51 l 103 -51 l 103 0 l 51 0 l 51 154 l 206 154 l 206 -51 l 154 -51 l 154 -103 l 51 -103 l 51 -51 z "},":":{"ha":257,"x_min":51,"x_max":206,"o":"m 51 617 l 206 617 l 206 463 l 51 463 l 51 617 m 51 154 l 206 154 l 206 0 l 51 0 l 51 154 z "},";":{"ha":257,"x_min":51,"x_max":206,"o":"m 51 617 l 206 617 l 206 463 l 51 463 l 51 617 m 51 -51 l 103 -51 l 103 0 l 51 0 l 51 154 l 206 154 l 206 -51 l 154 -51 l 154 -103 l 51 -103 l 51 -51 z "},"…":{"ha":772,"x_min":51,"x_max":720,"o":"m 566 154 l 720 154 l 720 0 l 566 0 l 566 154 m 309 154 l 463 154 l 463 0 l 309 0 l 309 154 m 51 154 l 206 154 l 206 0 l 51 0 l 51 154 z "},"!":{"ha":257,"x_min":51,"x_max":206,"o":"m 51 772 l 206 772 l 206 360 l 154 360 l 154 257 l 103 257 l 103 360 l 51 360 l 51 772 m 51 154 l 206 154 l 206 0 l 51 0 l 51 154 z "},"¡":{"ha":257,"x_min":51,"x_max":206,"o":"m 206 617 l 51 617 l 51 772 l 206 772 l 206 617 m 206 0 l 51 0 l 51 412 l 103 412 l 103 514 l 154 514 l 154 412 l 206 412 l 206 0 z "},"?":{"ha":566,"x_min":51,"x_max":514,"o":"m 206 412 l 257 412 l 257 463 l 309 463 l 309 514 l 360 514 l 360 566 l 309 566 l 309 617 l 257 617 l 257 566 l 206 566 l 206 514 l 51 514 l 51 669 l 103 669 l 103 720 l 154 720 l 154 772 l 412 772 l 412 720 l 463 720 l 463 669 l 514 669 l 514 463 l 463 463 l 463 412 l 412 412 l 412 360 l 360 360 l 360 309 l 309 309 l 309 257 l 257 257 l 257 309 l 206 309 l 206 412 m 206 154 l 360 154 l 360 0 l 206 0 l 206 154 z "},"¿":{"ha":566,"x_min":51,"x_max":514,"o":"m 360 617 l 206 617 l 206 772 l 360 772 l 360 617 m 257 154 l 309 154 l 309 206 l 360 206 l 360 257 l 514 257 l 514 103 l 463 103 l 463 51 l 412 51 l 412 0 l 154 0 l 154 51 l 103 51 l 103 103 l 51 103 l 51 309 l 103 309 l 103 360 l 154 360 l 154 412 l 206 412 l 206 463 l 257 463 l 257 514 l 309 514 l 309 463 l 360 463 l 360 360 l 309 360 l 309 309 l 257 309 l 257 257 l 206 257 l 206 206 l 257 206 l 257 154 z "},"·":{"ha":257,"x_min":51,"x_max":206,"o":"m 51 463 l 206 463 l 206 309 l 51 309 l 51 463 z "},"•":{"ha":412,"x_min":51,"x_max":360,"o":"m 51 514 l 103 514 l 103 566 l 309 566 l 309 514 l 360 514 l 360 309 l 309 309 l 309 257 l 103 257 l 103 309 l 51 309 l 51 514 z "},"*":{"ha":514,"x_min":51,"x_max":463,"o":"m 154 463 l 103 463 l 103 514 l 154 514 l 154 566 l 103 566 l 103 617 l 51 617 l 51 669 l 103 669 l 103 720 l 154 720 l 154 669 l 206 669 l 206 772 l 309 772 l 309 669 l 360 669 l 360 720 l 412 720 l 412 669 l 463 669 l 463 617 l 412 617 l 412 566 l 360 566 l 360 514 l 412 514 l 412 463 l 360 463 l 360 412 l 309 412 l 309 463 l 206 463 l 206 412 l 154 412 l 154 463 z "},"#":{"ha":874,"x_min":51,"x_max":823,"o":"m 360 257 l 463 257 l 463 360 l 514 360 l 514 463 l 412 463 l 412 360 l 360 360 l 360 257 m 51 257 l 206 257 l 206 360 l 257 360 l 257 463 l 154 463 l 154 566 l 309 566 l 309 720 l 463 720 l 463 566 l 566 566 l 566 720 l 720 720 l 720 566 l 823 566 l 823 463 l 669 463 l 669 360 l 617 360 l 617 257 l 720 257 l 720 154 l 566 154 l 566 0 l 412 0 l 412 154 l 309 154 l 309 0 l 154 0 l 154 154 l 51 154 l 51 257 z "},"/":{"ha":514,"x_min":51,"x_max":463,"o":"m 51 0 l 103 0 l 103 154 l 154 154 l 154 309 l 206 309 l 206 463 l 257 463 l 257 617 l 309 617 l 309 772 l 463 772 l 463 617 l 412 617 l 412 463 l 360 463 l 360 309 l 309 309 l 309 154 l 257 154 l 257 0 l 206 0 l 206 -154 l 51 -154 l 51 0 z "},"\\":{"ha":514,"x_min":51,"x_max":463,"o":"m 412 154 l 412 0 l 463 0 l 463 -154 l 309 -154 l 309 0 l 257 0 l 257 154 l 206 154 l 206 309 l 154 309 l 154 463 l 103 463 l 103 617 l 51 617 l 51 772 l 206 772 l 206 617 l 257 617 l 257 463 l 309 463 l 309 309 l 360 309 l 360 154 l 412 154 z "},"-":{"ha":566,"x_min":51,"x_max":514,"o":"m 51 463 l 514 463 l 514 309 l 51 309 l 51 463 z "},"–":{"ha":617,"x_min":51,"x_max":566,"o":"m 51 463 l 566 463 l 566 309 l 51 309 l 51 463 z "},"—":{"ha":874,"x_min":51,"x_max":823,"o":"m 51 463 l 823 463 l 823 309 l 51 309 l 51 463 z "},"_":{"ha":617,"x_min":51,"x_max":566,"o":"m 51 0 l 566 0 l 566 -154 l 51 -154 l 51 0 z "},"(":{"ha":360,"x_min":51,"x_max":309,"o":"m 103 -51 l 51 -51 l 51 669 l 103 669 l 103 720 l 154 720 l 154 772 l 309 772 l 309 720 l 257 720 l 257 669 l 206 669 l 206 -51 l 257 -51 l 257 -103 l 309 -103 l 309 -154 l 154 -154 l 154 -103 l 103 -103 l 103 -51 z "},")":{"ha":360,"x_min":51,"x_max":309,"o":"m 103 -103 l 103 -51 l 154 -51 l 154 669 l 103 669 l 103 720 l 51 720 l 51 772 l 206 772 l 206 720 l 257 720 l 257 669 l 309 669 l 309 -51 l 257 -51 l 257 -103 l 206 -103 l 206 -154 l 51 -154 l 51 -103 l 103 -103 z "},"{":{"ha":412,"x_min":51,"x_max":360,"o":"m 103 154 l 154 154 l 154 206 l 103 206 l 103 257 l 51 257 l 51 309 l 103 309 l 103 360 l 154 360 l 154 412 l 103 412 l 103 669 l 154 669 l 154 720 l 206 720 l 206 772 l 360 772 l 360 720 l 309 720 l 309 669 l 257 669 l 257 360 l 206 360 l 206 309 l 154 309 l 154 257 l 206 257 l 206 206 l 257 206 l 257 -51 l 309 -51 l 309 -103 l 360 -103 l 360 -154 l 206 -154 l 206 -103 l 154 -103 l 154 -51 l 103 -51 l 103 154 z "},"}":{"ha":412,"x_min":51,"x_max":360,"o":"m 103 -103 l 103 -51 l 154 -51 l 154 206 l 206 206 l 206 257 l 257 257 l 257 309 l 206 309 l 206 360 l 154 360 l 154 669 l 103 669 l 103 720 l 51 720 l 51 772 l 206 772 l 206 720 l 257 720 l 257 669 l 309 669 l 309 412 l 257 412 l 257 360 l 309 360 l 309 309 l 360 309 l 360 257 l 309 257 l 309 206 l 257 206 l 257 154 l 309 154 l 309 -51 l 257 -51 l 257 -103 l 206 -103 l 206 -154 l 51 -154 l 51 -103 l 103 -103 z "},"[":{"ha":412,"x_min":51,"x_max":360,"o":"m 206 0 l 360 0 l 360 -103 l 51 -103 l 51 823 l 360 823 l 360 720 l 206 720 l 206 0 z "},"]":{"ha":412,"x_min":51,"x_max":360,"o":"m 206 0 l 206 720 l 51 720 l 51 823 l 360 823 l 360 -103 l 51 -103 l 51 0 l 206 0 z "},"‚":{"ha":257,"x_min":51,"x_max":206,"o":"m 51 -51 l 103 -51 l 103 0 l 51 0 l 51 154 l 206 154 l 206 -51 l 154 -51 l 154 -103 l 51 -103 l 51 -51 z "},"„":{"ha":463,"x_min":51,"x_max":412,"o":"m 257 -51 l 309 -51 l 309 0 l 257 0 l 257 154 l 412 154 l 412 -51 l 360 -51 l 360 -103 l 257 -103 l 257 -51 m 51 -51 l 103 -51 l 103 0 l 51 0 l 51 154 l 206 154 l 206 -51 l 154 -51 l 154 -103 l 51 -103 l 51 -51 z "},"“":{"ha":463,"x_min":51,"x_max":412,"o":"m 257 720 l 309 720 l 309 772 l 412 772 l 412 720 l 360 720 l 360 669 l 412 669 l 412 514 l 257 514 l 257 720 m 154 669 l 206 669 l 206 514 l 51 514 l 51 720 l 103 720 l 103 772 l 206 772 l 206 720 l 154 720 l 154 669 z "},"”":{"ha":463,"x_min":51,"x_max":412,"o":"m 257 566 l 309 566 l 309 617 l 257 617 l 257 772 l 412 772 l 412 566 l 360 566 l 360 514 l 257 514 l 257 566 m 51 566 l 103 566 l 103 617 l 51 617 l 51 772 l 206 772 l 206 566 l 154 566 l 154 514 l 51 514 l 51 566 z "},"‘":{"ha":257,"x_min":51,"x_max":206,"o":"m 154 669 l 206 669 l 206 514 l 51 514 l 51 720 l 103 720 l 103 772 l 206 772 l 206 720 l 154 720 l 154 669 z "},"’":{"ha":257,"x_min":51,"x_max":206,"o":"m 154 514 l 51 514 l 51 566 l 103 566 l 103 617 l 51 617 l 51 772 l 206 772 l 206 566 l 154 566 l 154 514 z "},"«":{"ha":823,"x_min":51,"x_max":772,"o":"m 412 309 l 412 360 l 463 360 l 463 412 l 514 412 l 514 463 l 566 463 l 566 514 l 617 514 l 617 566 l 669 566 l 669 617 l 720 617 l 720 566 l 772 566 l 772 463 l 720 463 l 720 412 l 669 412 l 669 360 l 617 360 l 617 309 l 669 309 l 669 257 l 720 257 l 720 206 l 772 206 l 772 103 l 720 103 l 720 51 l 669 51 l 669 103 l 617 103 l 617 154 l 566 154 l 566 206 l 514 206 l 514 257 l 463 257 l 463 309 l 412 309 m 51 309 l 51 360 l 103 360 l 103 412 l 154 412 l 154 463 l 206 463 l 206 514 l 257 514 l 257 566 l 309 566 l 309 617 l 360 617 l 360 566 l 412 566 l 412 463 l 360 463 l 360 412 l 309 412 l 309 360 l 257 360 l 257 309 l 309 309 l 309 257 l 360 257 l 360 206 l 412 206 l 412 103 l 360 103 l 360 51 l 309 51 l 309 103 l 257 103 l 257 154 l 206 154 l 206 206 l 154 206 l 154 257 l 103 257 l 103 309 l 51 309 z "},"»":{"ha":823,"x_min":51,"x_max":772,"o":"m 103 103 l 51 103 l 51 206 l 103 206 l 103 257 l 154 257 l 154 309 l 206 309 l 206 360 l 154 360 l 154 412 l 103 412 l 103 463 l 51 463 l 51 566 l 103 566 l 103 617 l 154 617 l 154 566 l 206 566 l 206 514 l 257 514 l 257 463 l 309 463 l 309 412 l 360 412 l 360 360 l 412 360 l 412 309 l 360 309 l 360 257 l 309 257 l 309 206 l 257 206 l 257 154 l 206 154 l 206 103 l 154 103 l 154 51 l 103 51 l 103 103 m 463 103 l 412 103 l 412 206 l 463 206 l 463 257 l 514 257 l 514 309 l 566 309 l 566 360 l 514 360 l 514 412 l 463 412 l 463 463 l 412 463 l 412 566 l 463 566 l 463 617 l 514 617 l 514 566 l 566 566 l 566 514 l 617 514 l 617 463 l 669 463 l 669 412 l 720 412 l 720 360 l 772 360 l 772 309 l 720 309 l 720 257 l 669 257 l 669 206 l 617 206 l 617 154 l 566 154 l 566 103 l 514 103 l 514 51 l 463 51 l 463 103 z "},"‹":{"ha":463,"x_min":51,"x_max":412,"o":"m 51 309 l 51 360 l 103 360 l 103 412 l 154 412 l 154 463 l 206 463 l 206 514 l 257 514 l 257 566 l 309 566 l 309 617 l 360 617 l 360 566 l 412 566 l 412 463 l 360 463 l 360 412 l 309 412 l 309 360 l 257 360 l 257 309 l 309 309 l 309 257 l 360 257 l 360 206 l 412 206 l 412 103 l 360 103 l 360 51 l 309 51 l 309 103 l 257 103 l 257 154 l 206 154 l 206 206 l 154 206 l 154 257 l 103 257 l 103 309 l 51 309 z "},"›":{"ha":463,"x_min":51,"x_max":412,"o":"m 103 103 l 51 103 l 51 206 l 103 206 l 103 257 l 154 257 l 154 309 l 206 309 l 206 360 l 154 360 l 154 412 l 103 412 l 103 463 l 51 463 l 51 566 l 103 566 l 103 617 l 154 617 l 154 566 l 206 566 l 206 514 l 257 514 l 257 463 l 309 463 l 309 412 l 360 412 l 360 360 l 412 360 l 412 309 l 360 309 l 360 257 l 309 257 l 309 206 l 257 206 l 257 154 l 206 154 l 206 103 l 154 103 l 154 51 l 103 51 l 103 103 z "},"\"":{"ha":463,"x_min":51,"x_max":412,"o":"m 309 566 l 257 566 l 257 772 l 412 772 l 412 566 l 360 566 l 360 514 l 309 514 l 309 566 m 103 566 l 51 566 l 51 772 l 206 772 l 206 566 l 154 566 l 154 514 l 103 514 l 103 566 z "},"'":{"ha":257,"x_min":51,"x_max":206,"o":"m 103 566 l 51 566 l 51 772 l 206 772 l 206 566 l 154 566 l 154 514 l 103 514 l 103 566 z "},"@":{"ha":926,"x_min":51,"x_max":874,"o":"m 360 309 l 412 309 l 412 257 l 566 257 l 566 412 l 514 412 l 514 463 l 412 463 l 412 412 l 360 412 l 360 309 m 206 0 l 154 0 l 154 51 l 103 51 l 103 103 l 51 103 l 51 617 l 103 617 l 103 669 l 154 669 l 154 720 l 206 720 l 206 772 l 720 772 l 720 720 l 772 720 l 772 669 l 823 669 l 823 617 l 874 617 l 874 257 l 823 257 l 823 206 l 772 206 l 772 154 l 617 154 l 617 206 l 566 206 l 566 154 l 360 154 l 360 206 l 309 206 l 309 257 l 257 257 l 257 463 l 309 463 l 309 514 l 360 514 l 360 566 l 514 566 l 514 514 l 566 514 l 566 566 l 669 566 l 669 257 l 720 257 l 720 309 l 772 309 l 772 566 l 720 566 l 720 617 l 669 617 l 669 669 l 257 669 l 257 617 l 206 617 l 206 566 l 154 566 l 154 154 l 206 154 l 206 103 l 257 103 l 257 51 l 720 51 l 720 -51 l 206 -51 l 206 0 z "},"&":{"ha":874,"x_min":51,"x_max":823,"o":"m 309 514 l 360 514 l 360 566 l 412 566 l 412 617 l 360 617 l 360 669 l 309 669 l 309 617 l 257 617 l 257 566 l 309 566 l 309 514 m 51 360 l 103 360 l 103 412 l 154 412 l 154 463 l 206 463 l 206 514 l 154 514 l 154 566 l 103 566 l 103 669 l 154 669 l 154 720 l 206 720 l 206 772 l 463 772 l 463 720 l 514 720 l 514 669 l 566 669 l 566 514 l 514 514 l 514 463 l 463 463 l 463 360 l 514 360 l 514 309 l 566 309 l 566 360 l 617 360 l 617 412 l 772 412 l 772 309 l 720 309 l 720 257 l 669 257 l 669 154 l 720 154 l 720 103 l 772 103 l 772 51 l 823 51 l 823 0 l 617 0 l 617 51 l 566 51 l 566 103 l 514 103 l 514 51 l 463 51 l 463 0 l 154 0 l 154 51 l 103 51 l 103 103 l 51 103 l 51 360 m 206 206 l 257 206 l 257 154 l 360 154 l 360 206 l 412 206 l 412 257 l 360 257 l 360 309 l 309 309 l 309 360 l 257 360 l 257 309 l 206 309 l 206 206 z "},"¶":{"ha":566,"x_min":51,"x_max":514,"o":"m 154 463 l 103 463 l 103 514 l 51 514 l 51 669 l 103 669 l 103 720 l 154 720 l 154 772 l 360 772 l 360 0 l 257 0 l 257 412 l 154 412 l 154 463 m 412 772 l 514 772 l 514 0 l 412 0 l 412 772 z "},"§":{"ha":617,"x_min":51,"x_max":566,"o":"m 154 206 l 103 206 l 103 257 l 51 257 l 51 412 l 103 412 l 103 514 l 51 514 l 51 669 l 103 669 l 103 720 l 154 720 l 154 772 l 514 772 l 514 720 l 566 720 l 566 617 l 412 617 l 412 669 l 257 669 l 257 617 l 206 617 l 206 566 l 257 566 l 257 514 l 463 514 l 463 463 l 514 463 l 514 412 l 566 412 l 566 257 l 514 257 l 514 154 l 566 154 l 566 0 l 514 0 l 514 -51 l 463 -51 l 463 -103 l 103 -103 l 103 -51 l 51 -51 l 51 51 l 206 51 l 206 0 l 360 0 l 360 51 l 412 51 l 412 103 l 360 103 l 360 154 l 154 154 l 154 206 m 257 257 l 360 257 l 360 309 l 412 309 l 412 360 l 360 360 l 360 412 l 257 412 l 257 360 l 206 360 l 206 309 l 257 309 l 257 257 z "},"©":{"ha":926,"x_min":51,"x_max":874,"o":"m 206 0 l 154 0 l 154 51 l 103 51 l 103 103 l 51 103 l 51 617 l 103 617 l 103 669 l 154 669 l 154 720 l 206 720 l 206 772 l 720 772 l 720 720 l 772 720 l 772 669 l 823 669 l 823 617 l 874 617 l 874 103 l 823 103 l 823 51 l 772 51 l 772 0 l 720 0 l 720 -51 l 206 -51 l 206 0 m 309 257 l 257 257 l 257 463 l 309 463 l 309 514 l 360 514 l 360 566 l 617 566 l 617 514 l 669 514 l 669 412 l 566 412 l 566 463 l 412 463 l 412 412 l 360 412 l 360 309 l 412 309 l 412 257 l 566 257 l 566 309 l 669 309 l 669 206 l 617 206 l 617 154 l 360 154 l 360 206 l 309 206 l 309 257 m 669 669 l 257 669 l 257 617 l 206 617 l 206 566 l 154 566 l 154 154 l 206 154 l 206 103 l 257 103 l 257 51 l 669 51 l 669 103 l 720 103 l 720 154 l 772 154 l 772 566 l 720 566 l 720 617 l 669 617 l 669 669 z "},"®":{"ha":669,"x_min":51,"x_max":617,"o":"m 206 360 l 463 360 l 463 412 l 514 412 l 514 617 l 463 617 l 463 669 l 206 669 l 206 617 l 154 617 l 154 412 l 206 412 l 206 360 m 412 463 l 463 463 l 463 412 l 360 412 l 360 463 l 309 463 l 309 412 l 206 412 l 206 617 l 463 617 l 463 514 l 412 514 l 412 463 m 309 514 l 360 514 l 360 566 l 309 566 l 309 514 m 51 669 l 103 669 l 103 720 l 154 720 l 154 772 l 514 772 l 514 720 l 566 720 l 566 669 l 617 669 l 617 360 l 566 360 l 566 309 l 514 309 l 514 257 l 154 257 l 154 309 l 103 309 l 103 360 l 51 360 l 51 669 z "},"™":{"ha":1440,"x_min":51,"x_max":1389,"o":"m 823 463 l 772 463 l 772 0 l 617 0 l 617 772 l 772 772 l 772 720 l 823 720 l 823 669 l 874 669 l 874 617 l 926 617 l 926 566 l 977 566 l 977 514 l 1029 514 l 1029 566 l 1080 566 l 1080 617 l 1132 617 l 1132 669 l 1183 669 l 1183 720 l 1235 720 l 1235 772 l 1389 772 l 1389 0 l 1235 0 l 1235 463 l 1183 463 l 1183 412 l 1132 412 l 1132 360 l 1080 360 l 1080 309 l 1029 309 l 1029 257 l 977 257 l 977 309 l 926 309 l 926 360 l 874 360 l 874 412 l 823 412 l 823 463 m 51 772 l 514 772 l 514 617 l 360 617 l 360 0 l 206 0 l 206 617 l 51 617 l 51 772 z "},"°":{"ha":412,"x_min":51,"x_max":360,"o":"m 103 514 l 51 514 l 51 720 l 103 720 l 103 772 l 309 772 l 309 720 l 360 720 l 360 514 l 309 514 l 309 463 l 103 463 l 103 514 m 257 566 l 257 669 l 154 669 l 154 566 l 257 566 z "},"|":{"ha":463,"x_min":154,"x_max":309,"o":"m 154 772 l 309 772 l 309 -154 l 154 -154 l 154 772 z "},"¢":{"ha":617,"x_min":51,"x_max":566,"o":"m 103 154 l 51 154 l 51 463 l 103 463 l 103 514 l 154 514 l 154 566 l 257 566 l 257 669 l 360 669 l 360 566 l 463 566 l 463 514 l 514 514 l 514 463 l 566 463 l 566 360 l 412 360 l 412 412 l 360 412 l 360 206 l 412 206 l 412 257 l 566 257 l 566 154 l 514 154 l 514 103 l 463 103 l 463 51 l 360 51 l 360 -51 l 257 -51 l 257 51 l 154 51 l 154 103 l 103 103 l 103 154 m 154 257 l 206 257 l 206 206 l 257 206 l 257 412 l 206 412 l 206 360 l 154 360 l 154 257 z "},"$":{"ha":720,"x_min":51,"x_max":669,"o":"m 206 463 l 309 463 l 309 617 l 206 617 l 206 566 l 154 566 l 154 514 l 206 514 l 206 463 m 514 206 l 566 206 l 566 257 l 514 257 l 514 309 l 412 309 l 412 154 l 514 154 l 514 206 m 206 154 l 309 154 l 309 309 l 154 309 l 154 360 l 103 360 l 103 412 l 51 412 l 51 669 l 103 669 l 103 720 l 154 720 l 154 772 l 309 772 l 309 823 l 412 823 l 412 772 l 566 772 l 566 720 l 617 720 l 617 669 l 669 669 l 669 514 l 566 514 l 566 566 l 514 566 l 514 617 l 412 617 l 412 463 l 566 463 l 566 412 l 617 412 l 617 360 l 669 360 l 669 103 l 617 103 l 617 51 l 566 51 l 566 0 l 412 0 l 412 -103 l 309 -103 l 309 0 l 154 0 l 154 51 l 103 51 l 103 103 l 51 103 l 51 257 l 154 257 l 154 206 l 206 206 l 206 154 z "},"€":{"ha":720,"x_min":51,"x_max":669,"o":"m 51 360 l 154 360 l 154 412 l 51 412 l 51 514 l 154 514 l 154 669 l 206 669 l 206 720 l 257 720 l 257 772 l 566 772 l 566 720 l 617 720 l 617 669 l 669 669 l 669 514 l 514 514 l 514 566 l 463 566 l 463 617 l 360 617 l 360 566 l 309 566 l 309 514 l 463 514 l 463 412 l 309 412 l 309 360 l 463 360 l 463 257 l 309 257 l 309 206 l 360 206 l 360 154 l 463 154 l 463 206 l 514 206 l 514 257 l 669 257 l 669 103 l 617 103 l 617 51 l 566 51 l 566 0 l 257 0 l 257 51 l 206 51 l 206 103 l 154 103 l 154 257 l 51 257 l 51 360 z "},"£":{"ha":566,"x_min":51,"x_max":514,"o":"m 51 154 l 103 154 l 103 257 l 154 257 l 154 309 l 51 309 l 51 412 l 154 412 l 154 514 l 103 514 l 103 669 l 154 669 l 154 720 l 206 720 l 206 772 l 463 772 l 463 720 l 514 720 l 514 669 l 463 669 l 463 617 l 412 617 l 412 566 l 360 566 l 360 617 l 257 617 l 257 514 l 309 514 l 309 412 l 463 412 l 463 309 l 309 309 l 309 206 l 257 206 l 257 154 l 514 154 l 514 0 l 51 0 l 51 154 z "},"¥":{"ha":669,"x_min":51,"x_max":617,"o":"m 103 206 l 257 206 l 257 257 l 103 257 l 103 360 l 206 360 l 206 412 l 154 412 l 154 463 l 103 463 l 103 514 l 51 514 l 51 772 l 206 772 l 206 514 l 257 514 l 257 463 l 309 463 l 309 412 l 360 412 l 360 463 l 412 463 l 412 514 l 463 514 l 463 772 l 617 772 l 617 514 l 566 514 l 566 463 l 514 463 l 514 412 l 463 412 l 463 360 l 566 360 l 566 257 l 412 257 l 412 206 l 566 206 l 566 103 l 412 103 l 412 0 l 257 0 l 257 103 l 103 103 l 103 206 z "},"+":{"ha":669,"x_min":51,"x_max":617,"o":"m 51 463 l 257 463 l 257 669 l 412 669 l 412 463 l 617 463 l 617 309 l 412 309 l 412 103 l 257 103 l 257 309 l 51 309 l 51 463 z "},"−":{"ha":669,"x_min":51,"x_max":617,"o":"m 51 463 l 617 463 l 617 309 l 51 309 l 51 463 z "},"×":{"ha":617,"x_min":51,"x_max":566,"o":"m 103 103 l 51 103 l 51 206 l 103 206 l 103 257 l 154 257 l 154 309 l 206 309 l 206 360 l 154 360 l 154 412 l 103 412 l 103 463 l 51 463 l 51 566 l 103 566 l 103 617 l 154 617 l 154 566 l 206 566 l 206 514 l 257 514 l 257 463 l 360 463 l 360 514 l 412 514 l 412 566 l 463 566 l 463 617 l 514 617 l 514 566 l 566 566 l 566 463 l 514 463 l 514 412 l 463 412 l 463 360 l 412 360 l 412 309 l 463 309 l 463 257 l 514 257 l 514 206 l 566 206 l 566 103 l 514 103 l 514 51 l 463 51 l 463 103 l 412 103 l 412 154 l 360 154 l 360 206 l 257 206 l 257 154 l 206 154 l 206 103 l 154 103 l 154 51 l 103 51 l 103 103 z "},"÷":{"ha":669,"x_min":51,"x_max":617,"o":"m 257 669 l 412 669 l 412 514 l 257 514 l 257 669 m 51 463 l 617 463 l 617 309 l 51 309 l 51 463 m 257 257 l 412 257 l 412 103 l 257 103 l 257 257 z "},"=":{"ha":617,"x_min":51,"x_max":566,"o":"m 51 566 l 566 566 l 566 412 l 51 412 l 51 566 m 51 309 l 566 309 l 566 154 l 51 154 l 51 309 z "},">":{"ha":617,"x_min":51,"x_max":566,"o":"m 51 206 l 154 206 l 154 257 l 257 257 l 257 309 l 309 309 l 309 360 l 257 360 l 257 412 l 154 412 l 154 463 l 51 463 l 51 617 l 154 617 l 154 566 l 257 566 l 257 514 l 360 514 l 360 463 l 463 463 l 463 412 l 566 412 l 566 257 l 463 257 l 463 206 l 360 206 l 360 154 l 257 154 l 257 103 l 154 103 l 154 51 l 51 51 l 51 206 z "},"<":{"ha":617,"x_min":51,"x_max":566,"o":"m 360 257 l 463 257 l 463 206 l 566 206 l 566 51 l 463 51 l 463 103 l 360 103 l 360 154 l 257 154 l 257 206 l 154 206 l 154 257 l 51 257 l 51 412 l 154 412 l 154 463 l 257 463 l 257 514 l 360 514 l 360 566 l 463 566 l 463 617 l 566 617 l 566 463 l 463 463 l 463 412 l 360 412 l 360 360 l 309 360 l 309 309 l 360 309 l 360 257 z "},"~":{"ha":720,"x_min":51,"x_max":669,"o":"m 103 206 l 51 206 l 51 309 l 103 309 l 103 360 l 154 360 l 154 412 l 360 412 l 360 360 l 412 360 l 412 309 l 514 309 l 514 360 l 566 360 l 566 412 l 617 412 l 617 360 l 669 360 l 669 257 l 617 257 l 617 206 l 566 206 l 566 154 l 360 154 l 360 206 l 309 206 l 309 257 l 206 257 l 206 206 l 154 206 l 154 154 l 103 154 l 103 206 z "},"^":{"ha":669,"x_min":51,"x_max":617,"o":"m 51 514 l 103 514 l 103 566 l 154 566 l 154 617 l 206 617 l 206 669 l 257 669 l 257 720 l 412 720 l 412 669 l 463 669 l 463 617 l 514 617 l 514 566 l 566 566 l 566 514 l 617 514 l 617 412 l 463 412 l 463 463 l 412 463 l 412 514 l 360 514 l 360 566 l 309 566 l 309 514 l 257 514 l 257 463 l 206 463 l 206 412 l 51 412 l 51 514 z "},"%":{"ha":874,"x_min":51,"x_max":823,"o":"m 154 463 l 103 463 l 103 514 l 51 514 l 51 669 l 103 669 l 103 720 l 154 720 l 154 772 l 309 772 l 309 720 l 360 720 l 360 669 l 412 669 l 412 514 l 360 514 l 360 463 l 309 463 l 309 412 l 154 412 l 154 463 m 103 154 l 154 154 l 154 206 l 206 206 l 206 257 l 257 257 l 257 309 l 309 309 l 309 360 l 360 360 l 360 412 l 412 412 l 412 463 l 463 463 l 463 514 l 514 514 l 514 566 l 566 566 l 566 617 l 617 617 l 617 669 l 669 669 l 669 720 l 720 720 l 720 772 l 772 772 l 772 617 l 720 617 l 720 566 l 669 566 l 669 514 l 617 514 l 617 463 l 566 463 l 566 412 l 514 412 l 514 360 l 463 360 l 463 309 l 412 309 l 412 257 l 360 257 l 360 206 l 309 206 l 309 154 l 257 154 l 257 103 l 206 103 l 206 51 l 154 51 l 154 0 l 103 0 l 103 154 m 463 257 l 514 257 l 514 309 l 566 309 l 566 360 l 720 360 l 720 309 l 772 309 l 772 257 l 823 257 l 823 103 l 772 103 l 772 51 l 720 51 l 720 0 l 566 0 l 566 51 l 514 51 l 514 103 l 463 103 l 463 257 m 206 514 l 257 514 l 257 566 l 309 566 l 309 617 l 257 617 l 257 669 l 206 669 l 206 617 l 154 617 l 154 566 l 206 566 l 206 514 m 669 154 l 720 154 l 720 206 l 669 206 l 669 257 l 617 257 l 617 206 l 566 206 l 566 154 l 617 154 l 617 103 l 669 103 l 669 154 z "},"̈":{"ha":0,"x_min":-206,"x_max":206,"o":"m -206 823 l -51 823 l -51 669 l -206 669 l -206 823 m 51 823 l 206 823 l 206 669 l 51 669 l 51 823 z "},"̀":{"ha":0,"x_min":-103,"x_max":103,"o":"m -103 874 l 0 874 l 0 823 l 51 823 l 51 772 l 103 772 l 103 669 l 0 669 l 0 720 l -51 720 l -51 772 l -103 772 l -103 874 z "},"́":{"ha":0,"x_min":-103,"x_max":103,"o":"m -103 772 l -51 772 l -51 823 l 0 823 l 0 874 l 103 874 l 103 772 l 51 772 l 51 720 l 0 720 l 0 669 l -103 669 l -103 772 z "},"̃":{"ha":0,"x_min":-154,"x_max":154,"o":"m 51 669 l 0 669 l 0 720 l -103 720 l -103 669 l -154 669 l -154 823 l -103 823 l -103 874 l -51 874 l -51 823 l 0 823 l 0 772 l 103 772 l 103 823 l 154 823 l 154 669 l 103 669 l 103 617 l 51 617 l 51 669 z "},"̄":{"ha":0,"x_min":-154,"x_max":154,"o":"m -154 772 l 154 772 l 154 669 l -154 669 l -154 772 z "},"¨":{"ha":412,"x_min":0,"x_max":412,"o":"m 0 823 l 154 823 l 154 669 l 0 669 l 0 823 m 257 823 l 412 823 l 412 669 l 257 669 l 257 823 z "},"`":{"ha":206,"x_min":0,"x_max":206,"o":"m 0 874 l 103 874 l 103 823 l 154 823 l 154 772 l 206 772 l 206 669 l 103 669 l 103 720 l 51 720 l 51 772 l 0 772 l 0 874 z "},"´":{"ha":206,"x_min":0,"x_max":206,"o":"m 0 772 l 51 772 l 51 823 l 103 823 l 103 874 l 206 874 l 206 772 l 154 772 l 154 720 l 103 720 l 103 669 l 0 669 l 0 772 z "},"ˆ":{"ha":309,"x_min":0,"x_max":309,"o":"m 0 772 l 51 772 l 51 823 l 103 823 l 103 874 l 206 874 l 206 823 l 257 823 l 257 772 l 309 772 l 309 669 l 206 669 l 206 720 l 103 720 l 103 669 l 0 669 l 0 772 z "},"˚":{"ha":309,"x_min":0,"x_max":309,"o":"m 103 669 l 51 669 l 51 720 l 0 720 l 0 823 l 51 823 l 51 874 l 103 874 l 103 926 l 206 926 l 206 874 l 257 874 l 257 823 l 309 823 l 309 720 l 257 720 l 257 669 l 206 669 l 206 617 l 103 617 l 103 669 m 206 720 l 206 823 l 103 823 l 103 720 l 206 720 z "},"˜":{"ha":309,"x_min":0,"x_max":309,"o":"m 206 669 l 154 669 l 154 720 l 51 720 l 51 669 l 0 669 l 0 823 l 51 823 l 51 874 l 103 874 l 103 823 l 154 823 l 154 772 l 257 772 l 257 823 l 309 823 l 309 669 l 257 669 l 257 617 l 206 617 l 206 669 z "},"¯":{"ha":309,"x_min":0,"x_max":309,"o":"m 0 772 l 309 772 l 309 669 l 0 669 l 0 772 z "},"¸":{"ha":257,"x_min":0,"x_max":257,"o":"m 51 0 l 154 0 l 154 -51 l 206 -51 l 206 -103 l 257 -103 l 257 -206 l 206 -206 l 206 -257 l 0 -257 l 0 -154 l 154 -154 l 154 -103 l 51 -103 l 51 0 z "}}}
